<svg width="348" height="386" viewBox="0 0 348 386" fill="none" xmlns="http://www.w3.org/2000/svg">
<g clip-path="url(#clip0)">
<path d="M348.004 336.979C348.039 343.763 346.632 350.478 343.875 356.677C341.119 362.876 337.076 368.419 332.014 372.937C326.953 377.456 320.989 380.848 314.518 382.887C308.046 384.927 301.215 385.568 294.477 384.768C269.949 381.14 251.975 359.799 252.573 335.015V50.0779C251.98 25.2679 269.999 3.9156 294.559 0.326072C301.291 -0.461905 308.113 0.188116 314.575 2.23314C321.036 4.27817 326.99 7.67159 332.042 12.189C337.095 16.7063 341.13 22.2447 343.881 28.4378C346.633 34.6308 348.038 41.3374 348.004 48.114V336.979Z" fill="#F9AB00"/>
<path d="M47.7154 289.762C74.0683 289.762 95.4308 311.123 95.4308 337.47C95.4308 363.818 74.0683 385.178 47.7154 385.178C21.3626 385.178 0 363.818 0 337.471C0 311.123 21.3626 289.762 47.7154 289.762V289.762ZM173.265 145.166C146.788 146.617 126.244 168.823 126.86 195.33V323.477C126.86 358.255 142.165 379.369 164.589 383.869C171.541 385.278 178.72 385.122 185.604 383.412C192.489 381.703 198.906 378.483 204.392 373.986C209.877 369.489 214.292 363.827 217.317 357.412C220.342 350.997 221.901 343.989 221.881 336.896V193.121C221.893 186.765 220.638 180.47 218.191 174.604C215.744 168.738 212.153 163.418 207.627 158.954C203.102 154.49 197.732 150.972 191.833 148.605C185.933 146.238 179.621 145.069 173.265 145.167V145.166Z" fill="#E37400"/>
</g>
<defs>
<clipPath id="clip0">
<rect width="348" height="386" fill="white"/>
</clipPath>
</defs>
</svg>
