<svg width="107" height="107" viewBox="0 0 107 107" fill="none" xmlns="http://www.w3.org/2000/svg">
<path d="M26.75 64.648C26.75 65.8305 26.2803 66.9644 25.4442 67.8005C24.6081 68.6366 23.4741 69.1064 22.2917 69.1064C21.1093 69.1064 19.9753 68.6366 19.1392 67.8005C18.3031 66.9644 17.8334 65.8305 17.8334 64.648V44.5855C17.8334 43.4031 18.3031 42.2691 19.1392 41.433C19.9753 40.5969 21.1093 40.1272 22.2917 40.1272C23.4741 40.1272 24.6081 40.5969 25.4442 41.433C26.2803 42.2691 26.75 43.4031 26.75 44.5855V64.648Z" fill="#7CB342"/>
<path d="M89.1667 64.648C89.1667 65.8305 88.697 66.9644 87.8609 67.8005C87.0248 68.6366 85.8908 69.1064 84.7083 69.1064C83.5259 69.1064 82.3919 68.6366 81.5558 67.8005C80.7197 66.9644 80.25 65.8305 80.25 64.648V44.5855C80.25 43.4031 80.7197 42.2691 81.5558 41.433C82.3919 40.5969 83.5259 40.1272 84.7083 40.1272C85.8908 40.1272 87.0248 40.5969 87.8609 41.433C88.697 42.2691 89.1667 43.4031 89.1667 44.5855V64.648Z" fill="#7CB342"/>
<path d="M49.0417 89.1666C49.0417 90.3491 48.572 91.4831 47.7359 92.3192C46.8998 93.1553 45.7658 93.625 44.5833 93.625C43.4009 93.625 42.2669 93.1553 41.4308 92.3192C40.5947 91.4831 40.125 90.3491 40.125 89.1666V69.1041C40.125 67.9217 40.5947 66.7877 41.4308 65.9516C42.2669 65.1155 43.4009 64.6458 44.5833 64.6458C45.7658 64.6458 46.8998 65.1155 47.7359 65.9516C48.572 66.7877 49.0417 67.9217 49.0417 69.1041V89.1666Z" fill="#7CB342"/>
<path d="M66.875 89.1666C66.875 90.3491 66.4053 91.4831 65.5692 92.3192C64.7331 93.1553 63.5991 93.625 62.4167 93.625C61.2343 93.625 60.1003 93.1553 59.2642 92.3192C58.4281 91.4831 57.9584 90.3491 57.9584 89.1666V69.1041C57.9584 67.9217 58.4281 66.7877 59.2642 65.9516C60.1003 65.1155 61.2343 64.6458 62.4167 64.6458C63.5991 64.6458 64.7331 65.1155 65.5692 65.9516C66.4053 66.7877 66.875 67.9217 66.875 69.1041V89.1666Z" fill="#7CB342"/>
<path d="M31.2084 40.1272V73.5625C31.2084 74.7449 31.6781 75.8789 32.5142 76.715C33.3503 77.5511 34.4843 78.0208 35.6667 78.0208H71.3334C72.5158 78.0208 73.6498 77.5511 74.4859 76.715C75.322 75.8789 75.7917 74.7449 75.7917 73.5625V40.1272H31.2084Z" fill="#7CB342"/>
<path d="M53.5 17.8333C40.125 17.8333 31.9774 25.9586 31.2084 35.6666H75.7917C75.0204 25.9586 66.875 17.8333 53.5 17.8333ZM44.5834 30.3122C43.9922 30.3122 43.4252 30.0773 43.0071 29.6593C42.5891 29.2412 42.3542 28.6742 42.3542 28.083C42.3542 27.4918 42.5891 26.9248 43.0071 26.5068C43.4252 26.0887 43.9922 25.8539 44.5834 25.8539C45.1746 25.8539 45.7416 26.0887 46.1596 26.5068C46.5777 26.9248 46.8125 27.4918 46.8125 28.083C46.8125 28.6742 46.5777 29.2412 46.1596 29.6593C45.7416 30.0773 45.1746 30.3122 44.5834 30.3122ZM62.4167 30.3122C61.8255 30.3122 61.2585 30.0773 60.8404 29.6593C60.4224 29.2412 60.1875 28.6742 60.1875 28.083C60.1875 27.4918 60.4224 26.9248 60.8404 26.5068C61.2585 26.0887 61.8255 25.8539 62.4167 25.8539C63.0079 25.8539 63.5749 26.0887 63.993 26.5068C64.411 26.9248 64.6459 27.4918 64.6459 28.083C64.6459 28.6742 64.411 29.2412 63.993 29.6593C63.5749 30.0773 63.0079 30.3122 62.4167 30.3122Z" fill="#7CB342"/>
<path d="M66.8749 15.6042L63.1611 21.1749" stroke="#7CB342" stroke-linecap="round"/>
<path d="M40.125 15.6042L43.0965 20.2453" stroke="#7CB342" stroke-linecap="round"/>
</svg>
