<svg width="256" height="512" viewBox="0 0 256 512" fill="none" xmlns="http://www.w3.org/2000/svg">
<path d="M218.048 2.8892C210.079 7.5702 196.732 21.0182 180.794 40.4422V41.6372L194.739 67.4372L195.437 67.9352C205.697 53.2922 216.056 40.0442 226.615 28.7882C227.412 27.8912 227.81 27.4932 227.81 27.4932C227.412 27.8912 227.013 28.3892 226.615 28.7882C223.228 32.5732 212.868 44.5262 197.329 68.4332L199.122 68.8312C199.122 68.8312 235.48 65.2452 253.012 62.2572L254.008 61.3602C259.586 30.0822 248.529 15.7392 248.529 15.7392C248.529 15.7392 234.584 -6.7738 218.049 2.8892H218.048Z" fill="url(#paint0_linear)"/>
<path d="M152.405 139.156C156.887 130.889 161.37 122.721 165.852 114.851C170.534 106.683 175.315 98.7138 180.196 91.0438C180.495 90.6458 180.794 90.1478 180.993 89.6498C185.635 82.2978 190.451 75.0575 195.437 67.9348L180.794 40.3418C179.698 41.6368 178.602 43.0318 177.507 44.4258C173.323 49.7058 168.94 55.2838 164.457 61.2608C159.154 68.3429 153.974 75.516 148.918 82.7768C143.889 89.9696 138.974 97.2418 134.176 104.591C129.992 111.066 125.709 117.641 121.526 124.514C121.326 124.812 121.226 125.012 121.027 125.311V126.406L139.256 162.565L140.053 162.864C144.137 154.894 148.221 146.926 152.405 139.156V139.156Z" fill="url(#paint1_linear)"/>
<path d="M73.015 316.165C76.302 307.598 79.788 298.932 83.275 290.167C86.661 281.799 90.048 273.332 93.635 264.865C97.121 256.398 100.806 247.932 104.492 239.365C108.277 230.699 112.062 222.033 115.947 213.466C119.832 204.999 123.717 196.532 127.701 188.165C129.122 185.124 130.583 182.102 132.084 179.1C134.574 173.92 137.164 168.74 139.654 163.66C139.754 163.362 139.954 163.163 140.053 162.864L121.027 125.311L120.131 126.805C115.748 134.076 111.265 141.447 106.982 149.018C102.58 156.722 98.2966 164.492 94.132 172.327C90.546 179.001 87.16 185.675 83.772 192.448C83.075 193.843 82.478 195.138 81.781 196.532C77.8123 204.666 74.059 212.904 70.525 221.236C66.739 230.201 63.353 238.767 60.365 246.936C58.372 252.314 56.679 257.395 54.985 262.376C53.6776 266.579 52.4159 270.796 51.2 275.026C48.354 284.846 45.9279 294.783 43.928 304.809L44.228 306.005L62.456 342.263L63.054 342.562C65.544 335.788 68.134 329.015 70.824 322.042C71.521 320.05 72.318 318.157 73.014 316.165H73.015Z" fill="url(#paint2_linear)"/>
<path d="M43.7299 306.104C41.3389 318.157 39.6449 330.21 38.7489 342.164C38.7489 342.562 38.6489 342.96 38.6489 343.458C32.6719 333.896 16.7349 324.632 16.7349 324.632C28.1899 341.167 36.8559 357.603 38.1509 373.74C32.0749 375.035 23.7069 373.142 13.9459 369.656C24.0059 378.92 31.5759 381.51 34.5649 382.207C25.3009 382.805 15.6389 389.18 5.8769 396.451C20.1209 390.674 31.5769 388.383 39.8439 390.176C26.7949 427.132 13.7459 467.972 0.5979 511.203C4.5819 510.008 6.9729 507.318 8.3679 503.633C10.6579 495.763 26.1979 444.364 50.4029 376.728C51.0999 374.836 51.7979 372.844 52.4949 370.951C52.6949 370.453 52.8929 369.855 53.0929 369.357C55.6829 362.285 58.2729 355.013 61.0609 347.642C61.6589 345.949 62.3559 344.255 62.9539 342.562V342.462L43.9279 304.81C43.9279 305.308 43.8279 305.707 43.7289 306.105L43.7299 306.104Z" fill="url(#paint3_linear)"/>
<path d="M197.33 68.532C193.046 75.107 188.364 82.577 183.284 91.044C182.985 91.443 182.786 91.941 182.487 92.339C177.737 100.33 173.121 108.4 168.641 116.545C164.144 124.685 159.761 132.887 155.493 141.149C151.289 149.223 147.204 157.358 143.24 165.553L144.137 165.952L190.456 160.972L191.552 160.174C205.597 153.7 211.872 147.823 217.949 139.356C219.622 136.963 221.249 134.539 222.829 132.084C227.81 124.314 232.691 115.847 236.974 107.381C241.158 99.212 244.844 91.044 247.732 83.773C249.525 79.091 251.019 74.808 252.016 71.023C252.912 67.636 253.609 64.448 254.107 61.46C235.381 64.747 212.37 67.835 197.329 68.532H197.33Z" fill="url(#paint4_linear)"/>
<path d="M141.447 169.438C139.854 172.825 138.16 176.311 136.467 179.798C134.674 183.583 132.781 187.568 130.988 191.552C130.092 193.544 129.096 195.636 128.199 197.628C125.311 203.804 122.521 210.179 119.533 216.753C115.813 225.124 112.161 233.525 108.576 241.955C104.99 250.322 101.404 258.889 97.8179 267.854C94.2456 276.552 90.7587 285.285 87.3579 294.051C84.1709 302.12 80.9839 310.288 77.7959 318.854C77.5959 319.253 77.4969 319.651 77.2979 320.05C74.1109 328.517 71.0019 337.13 67.7139 345.995C67.6139 346.195 67.4369 346.713 67.3369 346.912L68.0249 347.065L81.8799 345.575L82.6619 345.251C82.3629 345.151 82.1789 344.753 81.8799 344.654C100.209 342.363 124.613 328.616 140.451 311.682C147.723 303.912 154.297 294.649 160.473 283.892C165.055 275.822 169.239 266.957 173.323 257.096C176.909 248.529 180.296 239.166 183.583 229.106C179.399 231.296 174.518 232.99 169.239 234.086C168.342 234.285 167.346 234.484 166.35 234.683C165.354 234.883 164.358 234.983 163.461 235.181C180.595 228.607 191.353 215.857 199.221 200.318C194.739 203.405 187.368 207.39 178.602 209.382C177.407 209.681 176.212 209.88 174.917 210.079C174.617 210.079 174.319 210.179 174.02 210.179C179.997 207.689 184.977 204.899 189.36 201.612C190.257 200.915 191.153 200.218 192.05 199.421C193.345 198.226 194.64 197.031 195.835 195.835C196.632 195.038 197.329 194.241 198.126 193.345C199.877 191.273 201.475 189.075 202.907 186.77C203.405 186.073 203.804 185.276 204.302 184.579C204.9 183.483 205.398 182.388 205.896 181.292C208.286 176.511 210.179 172.227 211.673 168.442C212.47 166.549 213.068 164.856 213.665 163.162C213.865 162.565 214.064 161.868 214.363 161.27C214.96 159.477 215.458 157.883 215.857 156.39C216.32 154.753 216.686 153.09 216.953 151.409C216.355 151.907 215.757 152.305 214.96 152.803C209.78 155.891 200.915 158.68 193.743 159.975L207.888 158.381L193.743 159.975C192.747 160.175 192.05 160.274 191.253 160.473C191.319 160.407 175.343 162.096 143.327 165.54C143.127 165.74 141.946 168.243 141.447 169.438V169.438Z" fill="url(#paint5_linear)"/>
<path d="M65.8429 350.63C63.3529 357.504 60.7629 364.576 58.2729 371.748C58.2729 371.848 58.1729 371.948 58.1729 372.047C57.7739 373.043 57.4749 374.039 57.0769 375.135C55.3839 380.015 53.8889 384.299 50.5029 394.26C56.0809 396.85 60.5629 403.524 64.8469 411.194C64.4479 403.324 61.1609 395.854 54.8859 390.176C82.4779 391.371 106.285 384.398 118.537 364.277C119.651 362.449 120.649 360.553 121.525 358.599C115.947 365.672 108.975 368.659 96.0249 367.963H95.9249H96.0249C115.25 359.396 124.812 351.128 133.379 337.482C135.498 334.002 137.492 330.447 139.356 326.823C122.521 344.056 103.097 348.937 82.6769 345.251L67.3369 346.945C66.8389 348.04 66.3409 349.335 65.8429 350.63V350.63Z" fill="url(#paint6_linear)"/>
<defs>
<linearGradient id="paint0_linear" x1="193.031" y1="44.1595" x2="298.68" y2="8.99526" gradientUnits="userSpaceOnUse">
<stop stop-color="#F69923"/>
<stop offset="0.3123" stop-color="#F79A23"/>
<stop offset="0.8383" stop-color="#E97826"/>
</linearGradient>
<linearGradient id="paint1_linear" x1="-40.927" y1="523.902" x2="319.936" y2="238.46" gradientUnits="userSpaceOnUse">
<stop offset="0.3233" stop-color="#9E2064"/>
<stop offset="0.6302" stop-color="#C92037"/>
<stop offset="0.7514" stop-color="#CD2335"/>
<stop offset="1" stop-color="#E97826"/>
</linearGradient>
<linearGradient id="paint2_linear" x1="-33.0143" y1="495.546" x2="318.404" y2="348.005" gradientUnits="userSpaceOnUse">
<stop offset="0.3233" stop-color="#9E2064"/>
<stop offset="0.6302" stop-color="#C92037"/>
<stop offset="0.7514" stop-color="#CD2335"/>
<stop offset="1" stop-color="#E97826"/>
</linearGradient>
<linearGradient id="paint3_linear" x1="-10.8232" y1="464.476" x2="145.485" y2="433.878" gradientUnits="userSpaceOnUse">
<stop stop-color="#282662"/>
<stop offset="0.09548" stop-color="#662E8D"/>
<stop offset="0.7882" stop-color="#9F2064"/>
<stop offset="0.9487" stop-color="#CD2032"/>
</linearGradient>
<linearGradient id="paint4_linear" x1="-0.646522" y1="546.005" x2="196.175" y2="70.8305" gradientUnits="userSpaceOnUse">
<stop offset="0.3233" stop-color="#9E2064"/>
<stop offset="0.6302" stop-color="#C92037"/>
<stop offset="0.7514" stop-color="#CD2335"/>
<stop offset="1" stop-color="#E97826"/>
</linearGradient>
<linearGradient id="paint5_linear" x1="15.1509" y1="518.667" x2="327.367" y2="126.758" gradientUnits="userSpaceOnUse">
<stop offset="0.3233" stop-color="#9E2064"/>
<stop offset="0.6302" stop-color="#C92037"/>
<stop offset="0.7514" stop-color="#CD2335"/>
<stop offset="1" stop-color="#E97826"/>
</linearGradient>
<linearGradient id="paint6_linear" x1="32.1823" y1="489.291" x2="150.968" y2="206.76" gradientUnits="userSpaceOnUse">
<stop stop-color="#282662"/>
<stop offset="0.09548" stop-color="#662E8D"/>
<stop offset="0.7882" stop-color="#9F2064"/>
<stop offset="0.9487" stop-color="#CD2032"/>
</linearGradient>
</defs>
</svg>
