<svg width="251" height="251" viewBox="0 0 251 251" fill="none" xmlns="http://www.w3.org/2000/svg">
<g clip-path="url(#clip0)">
<path d="M125.502 251.004C194.815 251.004 251.004 194.815 251.004 125.502C251.004 56.1891 194.815 0 125.502 0C56.1891 0 0 56.1891 0 125.502C0 194.815 56.1891 251.004 125.502 251.004Z" fill="#60B57D"/>
<path d="M115.52 57.9879C116.233 58.5806 116.684 59.4298 116.777 60.3523C116.87 61.2749 116.597 62.197 116.016 62.9198C115.435 63.6427 114.594 64.1084 113.673 64.2166C112.752 64.3247 111.825 64.0667 111.093 63.4982C101.879 56.0986 94.2053 53.6543 89.4726 56.0711C83.9643 58.8802 81.8279 67.9181 82.9397 80.5299L83.1064 82.233C83.2006 83.0948 83.3084 83.9713 83.43 84.8626L83.6937 86.6657C84.0212 88.7737 84.4242 90.9562 84.9046 93.2054C91.5394 92.1759 98.6802 91.5043 106.179 91.2248C109.317 87.1842 112.613 83.2694 116.061 79.4896L117.726 77.6953C121.889 73.2705 126.065 69.3094 130.174 65.8817L131.814 64.5384C146.81 52.4934 160.768 47.7273 169.796 53.5886C177.659 58.6899 179.767 70.2458 176.845 85.7313C176.766 86.194 176.596 86.6364 176.344 87.0327C176.093 87.4289 175.765 87.771 175.379 88.0391C174.994 88.3072 174.559 88.4958 174.1 88.594C173.641 88.6921 173.167 88.6979 172.706 88.6109C172.244 88.5239 171.805 88.3459 171.413 88.0873C171.022 87.8287 170.685 87.4946 170.424 87.1046C170.163 86.7146 169.982 86.2764 169.892 85.8157C169.802 85.3551 169.804 84.881 169.899 84.4214C172.346 71.4527 170.735 62.6236 165.948 59.5175C159.724 55.4779 148.161 60.1283 135.122 70.9899L133.667 72.2224C132.926 72.8615 132.191 73.5093 131.465 74.1657L129.985 75.5217C128.46 76.9427 126.966 78.3961 125.503 79.8808L123.998 81.427C123.747 81.6878 123.496 81.9516 123.244 82.2163L121.734 83.8311L120.224 85.4891L118.713 87.1912C118.209 87.7657 117.705 88.3472 117.203 88.9364L115.693 90.7228L115.4 91.0787C118.916 91.0974 122.494 91.1993 126.119 91.3876L127.526 91.466L130.322 91.6445C132.643 91.8072 134.937 92.0033 137.202 92.2318L139.906 92.521C140.354 92.572 140.801 92.624 141.247 92.6769L143.905 93.0113C146.108 93.3025 148.278 93.624 150.411 93.976L152.952 94.4114L155.457 94.8751L157.923 95.3663C166.081 97.0488 173.581 99.1784 180.189 101.675L182.147 102.435C199.505 109.37 210.202 118.918 209.653 129.472C209.198 138.196 201.377 145.399 188.269 150.559C187.835 150.739 187.37 150.83 186.9 150.829C186.43 150.827 185.966 150.731 185.534 150.548C185.101 150.364 184.71 150.096 184.382 149.76C184.055 149.424 183.797 149.025 183.625 148.588C183.453 148.151 183.37 147.685 183.381 147.215C183.391 146.746 183.495 146.283 183.686 145.854C183.878 145.425 184.153 145.039 184.495 144.717C184.837 144.396 185.24 144.146 185.68 143.982C196.489 139.727 202.32 134.357 202.593 129.104C202.944 122.38 194.898 115.426 181.506 109.816L179.839 109.136C178.712 108.687 177.548 108.248 176.352 107.819L174.532 107.183C173.918 106.974 173.296 106.767 172.665 106.563L170.75 105.96L168.789 105.374C168.458 105.278 168.126 105.183 167.791 105.088L165.764 104.529C165.423 104.438 165.079 104.346 164.734 104.256L162.643 103.727C160.481 103.195 158.309 102.705 156.128 102.258L153.88 101.811L152.742 101.595L150.44 101.183L148.105 100.793L146.924 100.607L144.54 100.254C143.74 100.14 142.935 100.031 142.125 99.9265L139.678 99.6235L137.205 99.347C135.952 99.215 134.698 99.0941 133.443 98.9843L130.903 98.7754C130.052 98.7107 129.197 98.6519 128.338 98.597L125.751 98.446L123.162 98.3274L120.594 98.2391C117.655 98.156 114.716 98.1338 111.776 98.1724L109.757 98.2097L108.962 99.2627C108.467 99.9281 107.975 100.597 107.487 101.268L106.02 103.309C103.789 106.454 101.642 109.659 99.5822 112.919L98.2213 115.099C96.7934 117.418 95.41 119.764 94.072 122.136C94.1926 122.432 94.3151 122.729 94.4397 123.026L95.4005 125.295C95.5633 125.675 95.728 126.054 95.8947 126.434L96.9104 128.72L97.9635 131.016L99.0537 133.319L100.181 135.629L101.344 137.945L102.535 140.247L103.744 142.516L104.969 144.752L105.587 145.856L106.834 148.039C107.251 148.761 107.672 149.476 108.094 150.186L109.366 152.296C109.793 152.992 110.22 153.684 110.651 154.368L111.945 156.402L113.248 158.397C114.32 160.016 115.417 161.619 116.538 163.205L117.865 165.054C118.737 166.255 119.626 167.445 120.529 168.623L121.864 170.339L123.201 172.011C123.423 172.285 123.647 172.558 123.869 172.828L125.205 174.428L126.538 175.98C127.831 177.464 129.158 178.918 130.519 180.34L131.835 181.69L133.143 182.988C133.783 183.613 134.432 184.228 135.089 184.835L136.373 185.998C137 186.555 137.636 187.101 138.28 187.638L139.535 188.66C148.068 195.45 155.629 198.192 160.649 195.631C165.362 193.229 167.612 186.211 167.445 176.26L167.403 174.745C167.382 174.226 167.356 173.707 167.324 173.188L167.208 171.59C167.163 171.043 167.113 170.497 167.057 169.951L166.869 168.272C166.835 167.988 166.799 167.703 166.762 167.419L166.521 165.685L166.242 163.915L165.929 162.111C165.645 160.554 165.331 159.002 164.988 157.456L164.549 155.541L164.075 153.596C163.992 153.27 163.908 152.942 163.824 152.614L163.295 150.628L162.731 148.617L162.435 147.602L161.817 145.555L161.164 143.485C160.829 142.444 160.48 141.395 160.118 140.339L159.376 138.219L158.599 136.079C158.062 134.63 157.508 133.187 156.938 131.751L156.053 129.564L155.135 127.365L154.662 126.261L153.69 124.044L152.682 121.816C152.512 121.445 152.339 121.072 152.166 120.7L151.107 118.46C150.927 118.086 150.745 117.711 150.563 117.338C150.35 116.919 150.223 116.463 150.189 115.995C150.154 115.527 150.213 115.057 150.362 114.613C150.511 114.168 150.748 113.757 151.057 113.405C151.367 113.052 151.743 112.765 152.165 112.559C152.586 112.353 153.045 112.234 153.513 112.207C153.982 112.181 154.451 112.247 154.893 112.404C155.335 112.561 155.742 112.803 156.089 113.119C156.436 113.434 156.718 113.815 156.916 114.24L158.089 116.682C158.473 117.494 158.852 118.305 159.222 119.115L160.318 121.541C161.379 123.926 162.396 126.331 163.37 128.753L164.308 131.132C164.462 131.527 164.613 131.922 164.763 132.316L165.641 134.672C165.784 135.064 165.926 135.454 166.066 135.844L166.885 138.174C167.41 139.701 167.915 141.235 168.399 142.776L169.095 145.046C177.429 172.9 176.361 195.555 163.86 201.929C153.748 207.086 139.411 199.923 124.979 184.814L123.486 183.223C122.473 182.124 121.478 181.007 120.502 179.875L119.013 178.12C115.046 173.37 111.115 168.063 107.308 162.288L105.887 160.101C102.218 154.364 98.8163 148.461 95.6917 142.41L95.0476 141.156C94.6216 140.321 94.2006 139.483 93.7847 138.642L92.5621 136.133C91.6093 134.149 90.6856 132.152 89.7913 130.141L89.2206 131.269C89.0441 131.622 88.8706 131.975 88.698 132.328L87.6803 134.433L86.7028 136.523L85.7635 138.596C85.6105 138.94 85.4596 139.284 85.3095 139.627L84.431 141.673C84.2879 142.012 84.1467 142.349 84.0065 142.688L83.1868 144.704C83.0535 145.037 82.9221 145.37 82.7927 145.703L82.0338 147.683C81.9112 148.012 81.7897 148.339 81.671 148.666L80.9729 150.61L80.316 152.528C79.9974 153.479 79.6954 154.421 79.4081 155.351L78.8541 157.198L78.3423 159.012C78.2609 159.312 78.1805 159.611 78.1021 159.908L77.6531 161.672C77.3065 163.084 76.9939 164.505 76.7157 165.932L76.4147 167.569C74.4146 179.168 75.7186 187.722 80.6749 190.939C85.6674 194.177 94.924 191.713 106.346 183.467C106.722 183.187 107.15 182.985 107.605 182.872C108.06 182.759 108.532 182.737 108.995 182.808C109.459 182.879 109.903 183.042 110.303 183.287C110.703 183.531 111.05 183.853 111.324 184.233C111.598 184.613 111.794 185.043 111.901 185.5C112.007 185.956 112.021 186.429 111.943 186.891C111.865 187.353 111.696 187.795 111.445 188.191C111.195 188.587 110.868 188.93 110.484 189.198C96.9467 198.971 84.9791 202.156 76.8275 196.867C66.9777 190.476 66.2855 173.574 72.8409 152.548L73.5214 150.432C73.99 149.013 74.491 147.576 75.0234 146.123L75.8451 143.934C77.009 140.91 78.2597 137.921 79.5954 134.969L80.6464 132.685L81.7416 130.385C83.169 127.441 84.6669 124.533 86.2341 121.662C86.0223 121.12 85.8125 120.58 85.6056 120.041L84.6909 117.614C83.5276 114.47 82.45 111.294 81.4592 108.091L80.7592 105.763C80.3331 104.309 79.9278 102.85 79.5434 101.384C79.1071 101.472 78.6757 101.561 78.2472 101.651L76.3255 102.074L74.4499 102.518C74.141 102.593 73.8351 102.67 73.5302 102.747L71.7261 103.221L69.974 103.715C69.3975 103.883 68.8298 104.054 68.2719 104.228L66.6218 104.759C66.0806 104.94 65.5482 105.123 65.0256 105.309L63.4843 105.877C52.8923 109.91 46.4408 115.201 46.1398 120.964C45.8663 126.218 51.1088 132.164 61.4194 137.518C61.8392 137.727 62.2131 138.018 62.5194 138.373C62.8257 138.728 63.0582 139.141 63.2034 139.587C63.3486 140.033 63.4035 140.503 63.3651 140.971C63.3266 141.438 63.1955 141.893 62.9793 142.31C62.7632 142.726 62.4663 143.095 62.1061 143.395C61.7459 143.696 61.3295 143.922 60.8811 144.059C60.4328 144.197 59.9615 144.245 59.4947 144.198C59.0279 144.152 58.575 144.014 58.1623 143.791C45.6584 137.298 38.6265 129.322 39.0824 120.598C39.7148 108.434 55.0689 99.15 77.906 94.4623C73.2841 72.3773 75.6362 55.1936 86.2596 49.7755C94.1122 45.7674 104.371 49.0333 115.519 57.9889L115.52 57.9879ZM134.887 123.729C136.06 129.157 132.61 134.505 127.183 135.679C121.756 136.852 116.408 133.403 115.233 127.975C114.063 122.548 117.51 117.2 122.938 116.026C128.365 114.853 133.712 118.302 134.887 123.729ZM100.671 98.6235L100.033 98.6676C99.5459 98.7029 99.0606 98.7392 98.5782 98.7784L96.279 98.9764L94.0141 99.2C93.6396 99.2392 93.267 99.2804 92.8954 99.3216L90.6835 99.5833L89.5922 99.7235L87.4372 100.022L86.5822 100.152L86.8842 101.281C87.3675 103.035 87.8801 104.781 88.4215 106.518L89.102 108.656L89.4569 109.734L90.1942 111.904C90.3972 112.489 90.6041 113.077 90.8149 113.667C91.9455 111.786 93.1026 109.921 94.2857 108.073L95.0505 106.889C96.8639 104.093 98.7376 101.338 100.671 98.6235V98.6235Z" fill="white"/>
</g>
<defs>
<clipPath id="clip0">
<rect width="251" height="251" fill="white"/>
</clipPath>
</defs>
</svg>
