<svg width="1024" height="1024" viewBox="0 0 1024 1024" fill="none" xmlns="http://www.w3.org/2000/svg">
<path d="M0 233C0 104.318 104.318 0 233 0H791C919.682 0 1024 104.318 1024 233V791C1024 919.682 919.682 1024 791 1024H233C104.318 1024 0 919.682 0 791V233Z" fill="#FFE082"/>
<path d="M336.898 653V155.344H511.215C571.599 155.344 617.4 166.965 648.617 190.207C679.835 213.221 695.443 247.059 695.443 291.721C695.443 316.102 689.177 337.635 676.645 356.32C664.112 374.777 646.68 388.335 624.35 396.994C649.87 403.374 669.923 416.249 684.506 435.617C699.317 454.986 706.723 478.684 706.723 506.711C706.723 554.562 691.456 590.793 660.922 615.402C630.388 640.012 586.866 652.544 530.355 653H336.898ZM439.438 436.301V570.627H527.279C551.433 570.627 570.232 564.93 583.676 553.537C597.348 541.916 604.184 525.965 604.184 505.686C604.184 460.113 580.6 436.984 533.432 436.301H439.438ZM439.438 363.84H515.316C567.042 362.928 592.904 342.307 592.904 301.975C592.904 279.416 586.296 263.238 573.08 253.439C560.092 243.413 539.47 238.4 511.215 238.4H439.438V363.84Z" fill="black"/>
<path d="M252.867 858L252.867 751.359H290.221C303.16 751.359 312.975 753.85 319.664 758.83C326.354 763.762 329.698 771.013 329.698 780.583C329.698 785.808 328.355 790.422 325.67 794.426C322.984 798.381 319.249 801.286 314.464 803.142C319.933 804.509 324.229 807.268 327.354 811.418C330.528 815.568 332.115 820.646 332.115 826.652C332.115 836.906 328.844 844.67 322.301 849.943C315.758 855.217 306.432 857.902 294.322 858H252.867ZM274.84 811.564V840.349H293.663C298.839 840.349 302.867 839.128 305.748 836.687C308.678 834.196 310.143 830.778 310.143 826.433C310.143 816.667 305.089 811.711 294.981 811.564H274.84ZM274.84 796.037H291.1C302.184 795.842 307.726 791.423 307.726 782.78C307.726 777.946 306.31 774.479 303.478 772.38C300.694 770.231 296.275 769.157 290.221 769.157H274.84V796.037Z" fill="black"/>
<path d="M459.381 751.359V821.599C459.381 833.269 455.719 842.497 448.395 849.284C441.119 856.071 431.158 859.465 418.512 859.465C406.061 859.465 396.173 856.169 388.849 849.577C381.524 842.985 377.789 833.928 377.643 822.404V751.359H399.615V821.745C399.615 828.728 401.275 833.83 404.596 837.053C407.965 840.227 412.604 841.813 418.512 841.813C430.865 841.813 437.14 835.319 437.335 822.331V751.359H459.381Z" fill="black"/>
<path d="M530.689 840.349H584.449V858H503.224V845.109L555.958 769.157H503.297V751.359H583.277V763.957L530.689 840.349Z" fill="black"/>
<path d="M651.656 840.349H705.416V858L624.19 858V845.109L676.925 769.157H624.264V751.359H704.244V763.957L651.656 840.349Z" fill="black"/>
<path d="M770.279 858H749.039V778.752H770.279V858ZM747.794 758.244C747.794 755.07 748.844 752.458 750.943 750.407C753.092 748.356 755.997 747.331 759.659 747.331C763.272 747.331 766.153 748.356 768.302 750.407C770.45 752.458 771.524 755.07 771.524 758.244C771.524 761.467 770.426 764.104 768.229 766.154C766.08 768.205 763.224 769.23 759.659 769.23C756.095 769.23 753.214 768.205 751.017 766.154C748.868 764.104 747.794 761.467 747.794 758.244Z" fill="black"/>
</svg>
