<svg width="512" height="512" viewBox="0 0 512 512" fill="none" xmlns="http://www.w3.org/2000/svg">
<g filter="url(#filter0_ddd)">
<rect x="46" y="46" width="420" height="420" rx="8" fill="#FFE082"/>
</g>
<path d="M92.1992 247V179.461H115.856C124.051 179.461 130.267 181.038 134.504 184.192C138.741 187.316 140.859 191.908 140.859 197.969C140.859 201.278 140.008 204.201 138.308 206.736C136.607 209.241 134.241 211.081 131.21 212.256C134.674 213.122 137.395 214.869 139.375 217.498C141.385 220.127 142.39 223.343 142.39 227.146C142.39 233.641 140.318 238.558 136.174 241.897C132.03 245.237 126.123 246.938 118.454 247H92.1992ZM106.115 217.591V235.821H118.037C121.315 235.821 123.866 235.048 125.69 233.501C127.546 231.924 128.474 229.76 128.474 227.007C128.474 220.822 125.273 217.684 118.872 217.591H106.115ZM106.115 207.757H116.413C123.433 207.633 126.943 204.834 126.943 199.361C126.943 196.299 126.046 194.104 124.252 192.774C122.49 191.413 119.691 190.733 115.856 190.733H106.115V207.757ZM222.991 179.461V223.946C222.991 231.337 220.672 237.181 216.033 241.48C211.425 245.778 205.117 247.928 197.107 247.928C189.222 247.928 182.959 245.84 178.321 241.666C173.682 237.491 171.316 231.754 171.224 224.456V179.461H185.14V224.039C185.14 228.461 186.191 231.692 188.294 233.733C190.428 235.743 193.366 236.749 197.107 236.749C204.931 236.749 208.905 232.636 209.029 224.41V179.461H222.991ZM268.153 235.821H302.201V247H250.758V238.836L284.157 190.733H250.805V179.461H301.459V187.439L268.153 235.821ZM344.766 235.821H378.813V247H327.371V238.836L360.769 190.733H327.417V179.461H378.071V187.439L344.766 235.821ZM419.894 247H406.441V196.81H419.894V247ZM405.653 183.821C405.653 181.811 406.318 180.157 407.647 178.858C409.008 177.559 410.848 176.91 413.167 176.91C415.456 176.91 417.28 177.559 418.641 178.858C420.002 180.157 420.682 181.811 420.682 183.821C420.682 185.862 419.986 187.532 418.595 188.831C417.234 190.13 415.425 190.779 413.167 190.779C410.91 190.779 409.085 190.13 407.694 188.831C406.333 187.532 405.653 185.862 405.653 183.821Z" fill="black"/>
<path d="M189.884 335.3C189.091 335.3 188.156 334.648 187.079 333.345C186.059 331.985 185.549 330.597 185.549 329.18C185.549 327.707 187.391 319.83 191.074 305.55C194.757 291.27 196.599 282.317 196.599 278.69C196.599 277.67 196.712 276.962 196.939 276.565C197.166 276.168 197.676 275.97 198.469 275.97C199.319 275.97 200.311 276.848 201.444 278.605C202.577 280.362 203.144 282.373 203.144 284.64C203.144 286.907 201.671 293.622 198.724 304.785C203.881 297.758 209.321 291.298 215.044 285.405C220.767 279.455 224.394 276.48 225.924 276.48C227.057 276.48 228.106 276.848 229.069 277.585C230.089 278.322 230.599 279.058 230.599 279.795C230.599 280.475 229.239 282.062 226.519 284.555C223.856 286.992 220.257 290.42 215.724 294.84C211.191 299.26 207.309 303.68 204.079 308.1C204.079 310.423 204.702 312.945 205.949 315.665C207.932 320.198 212.012 323.967 218.189 326.97C220.852 328.273 222.921 329.378 224.394 330.285C225.924 331.192 226.689 332.127 226.689 333.09C226.689 334.563 225.584 335.3 223.374 335.3C221.164 335.3 218.841 334.847 216.404 333.94C213.967 332.977 211.531 331.645 209.094 329.945C206.657 328.245 204.419 326.007 202.379 323.23C200.396 320.397 199.036 317.308 198.299 313.965C196.542 317.082 194.899 321.19 193.369 326.29C191.499 332.297 190.366 335.3 189.969 335.3H189.884ZM244.694 281.495C244.694 280.362 245.147 279.285 246.054 278.265C246.96 277.245 247.867 276.735 248.774 276.735C249.737 276.735 250.87 277.897 252.174 280.22C253.477 282.487 254.129 284.385 254.129 285.915C254.129 286.482 253.874 286.992 253.364 287.445C252.854 287.898 252.315 288.125 251.749 288.125C250.389 288.125 248.859 287.303 247.159 285.66C245.515 284.017 244.694 282.628 244.694 281.495ZM244.269 293.565C245.345 293.565 246.365 294.217 247.329 295.52C248.292 296.823 248.774 298.098 248.774 299.345C248.774 300.592 247.952 304.332 246.309 310.565C244.665 316.742 242.597 323.683 240.104 331.39C239.14 334.223 237.922 335.64 236.449 335.64C235.655 335.64 234.975 335.328 234.409 334.705C233.842 334.025 233.559 333.288 233.559 332.495C233.559 331.645 233.757 330.342 234.154 328.585C234.607 326.772 235.23 324.392 236.024 321.445C236.874 318.442 237.525 316.005 237.979 314.135C238.489 312.265 238.999 310.168 239.509 307.845C240.019 305.465 240.415 303.567 240.699 302.15C241.039 300.677 241.407 299.203 241.804 297.73C242.597 294.953 243.419 293.565 244.269 293.565ZM290.448 269.765C291.354 269.765 292.459 270.615 293.763 272.315C295.123 273.958 295.803 275.517 295.803 276.99C295.803 278.463 295.094 282.657 293.678 289.57C292.261 296.427 290.618 303.538 288.748 310.905C284.668 327.452 281.976 335.725 280.673 335.725C279.879 335.725 279.001 335.243 278.038 334.28C277.131 333.26 276.678 332.382 276.678 331.645C276.678 330.908 276.876 329.435 277.273 327.225C271.719 332.892 266.874 335.725 262.738 335.725C260.244 335.725 257.978 334.592 255.938 332.325C253.954 330.058 252.963 327.707 252.963 325.27C252.963 321.757 253.898 317.592 255.768 312.775C257.694 307.902 260.443 303.482 264.013 299.515C267.583 295.548 271.379 293.565 275.403 293.565C279.426 293.565 282.231 295.973 283.818 300.79C286.708 288.777 288.294 279.285 288.578 272.315C288.578 270.615 289.201 269.765 290.448 269.765ZM281.098 311.5C281.098 308.44 280.559 305.862 279.483 303.765C278.463 301.668 277.216 300.62 275.743 300.62C273.306 300.62 270.813 302.122 268.263 305.125C265.713 308.128 263.673 311.585 262.143 315.495C260.669 319.348 259.933 322.692 259.933 325.525C259.933 326.545 260.301 327.367 261.038 327.99C261.774 328.613 262.653 328.925 263.673 328.925C265.883 328.925 268.858 327.338 272.598 324.165C276.394 320.992 279.143 317.252 280.843 312.945L281.098 311.925V311.5ZM320.795 293.565C322.721 293.565 324.535 294.642 326.235 296.795C327.935 298.892 328.785 300.733 328.785 302.32C328.785 303.283 328.331 303.765 327.425 303.765C326.801 303.765 325.838 303.283 324.535 302.32C323.231 301.3 321.9 300.79 320.54 300.79C319.18 300.79 317.026 301.583 314.08 303.17C311.19 304.757 309.745 306.428 309.745 308.185C309.745 309.488 312.351 311.727 317.565 314.9C319.548 316.147 321.333 317.762 322.92 319.745C324.563 321.672 325.385 323.768 325.385 326.035C325.385 328.245 323.826 330.427 320.71 332.58C317.65 334.677 314.051 335.725 309.915 335.725C305.835 335.725 302.208 334.733 299.035 332.75C295.918 330.767 294.36 328.897 294.36 327.14C294.36 326.403 294.53 325.837 294.87 325.44C295.266 324.987 295.748 324.76 296.315 324.76C296.881 324.76 297.675 325.128 298.695 325.865C301.755 328.075 304.928 329.18 308.215 329.18C311.558 329.18 313.966 328.812 315.44 328.075C316.913 327.282 317.65 326.262 317.65 325.015C317.65 323.712 316.828 322.352 315.185 320.935C313.541 319.462 311.728 318.158 309.745 317.025C307.818 315.892 306.033 314.503 304.39 312.86C302.746 311.217 301.925 309.545 301.925 307.845C301.925 304.842 304.276 301.725 308.98 298.495C313.74 295.208 317.678 293.565 320.795 293.565Z" fill="#424242"/>
<defs>
<filter id="filter0_ddd" x="32" y="35" width="448" height="449" filterUnits="userSpaceOnUse" color-interpolation-filters="sRGB">
<feFlood flood-opacity="0" result="BackgroundImageFix"/>
<feColorMatrix in="SourceAlpha" type="matrix" values="0 0 0 0 0 0 0 0 0 0 0 0 0 0 0 0 0 0 127 0"/>
<feOffset dy="4"/>
<feGaussianBlur stdDeviation="2.5"/>
<feColorMatrix type="matrix" values="0 0 0 0 0.258824 0 0 0 0 0.258824 0 0 0 0 0.258824 0 0 0 0.2 0"/>
<feBlend mode="normal" in2="BackgroundImageFix" result="effect1_dropShadow"/>
<feColorMatrix in="SourceAlpha" type="matrix" values="0 0 0 0 0 0 0 0 0 0 0 0 0 0 0 0 0 0 127 0"/>
<feOffset dy="3"/>
<feGaussianBlur stdDeviation="7"/>
<feColorMatrix type="matrix" values="0 0 0 0 0.258824 0 0 0 0 0.258824 0 0 0 0 0.258824 0 0 0 0.12 0"/>
<feBlend mode="normal" in2="effect1_dropShadow" result="effect2_dropShadow"/>
<feColorMatrix in="SourceAlpha" type="matrix" values="0 0 0 0 0 0 0 0 0 0 0 0 0 0 0 0 0 0 127 0"/>
<feOffset dy="8"/>
<feGaussianBlur stdDeviation="5"/>
<feColorMatrix type="matrix" values="0 0 0 0 0.258824 0 0 0 0 0.258824 0 0 0 0 0.258824 0 0 0 0.14 0"/>
<feBlend mode="normal" in2="effect2_dropShadow" result="effect3_dropShadow"/>
<feBlend mode="normal" in="SourceGraphic" in2="effect3_dropShadow" result="shape"/>
</filter>
</defs>
</svg>
