<svg width="363" height="408" viewBox="0 0 363 408" fill="none" xmlns="http://www.w3.org/2000/svg">
<g clip-path="url(#clip0)">
<path d="M362.982 121.369C362.979 114.508 361.511 108.446 358.545 103.244C355.631 98.1269 351.265 93.8401 345.412 90.4486C297.086 62.5828 248.713 34.8019 200.404 6.90775C187.38 -0.610496 174.752 -0.337079 161.824 7.29025C142.59 18.6349 46.2868 73.8113 17.5899 90.433C5.77255 97.2755 0.0212695 107.746 0.0184336 121.356C0 177.397 0.0184336 233.434 0 289.476C0.00283594 296.185 1.40804 302.13 4.24398 307.255C7.15932 312.525 11.5848 316.931 17.5743 320.399C46.2726 337.021 142.588 392.193 161.819 403.54C174.752 411.172 187.38 411.444 200.409 403.923C248.719 376.027 297.094 348.248 345.427 320.382C351.417 316.916 355.842 312.507 358.757 307.241C361.589 302.116 362.997 296.171 363 289.461C363 289.461 363 177.411 362.982 121.369" fill="#A9B9CB"/>
<path d="M200.077 7.27546C187.074 -0.224372 174.467 0.0490452 161.561 7.65654C142.357 18.9715 46.2116 74.0047 17.5615 90.584C5.76263 97.408 0.0212695 107.852 0.0184336 121.426C0 177.321 0.0184336 233.214 0 289.11C0.00283594 295.802 1.40521 301.731 4.23689 306.842C7.14798 312.1 11.5664 316.494 17.5459 319.952C27.0671 325.452 36.5954 330.939 46.1308 336.414L311.421 71.3669C274.302 50.012 237.172 28.6742 200.077 7.27546Z" fill="#7F8B99"/>
<path d="M219.014 179.871L275.504 180.27C275.504 156.754 251.679 99.1667 183.374 99.1667C139.855 99.1667 81.3501 126.809 81.3501 206.281C81.3501 285.752 138.703 311.667 183.374 311.667C255.715 311.667 273.004 261.656 273.004 233.393L219.111 230.315C219.111 230.315 220.554 263.004 183.087 263.004C148.502 263.004 142.731 220.677 142.731 206.281C142.731 184.398 150.52 149.269 183.087 149.269C215.654 149.269 219.014 179.871 219.014 179.871" fill="white"/>
</g>
<defs>
<clipPath id="clip0">
<rect width="363" height="408" fill="white"/>
</clipPath>
</defs>
</svg>
