<svg width="352" height="352" viewBox="0 0 352 352" fill="none" xmlns="http://www.w3.org/2000/svg">
<path d="M132.001 322.667H146.668V293.333H132.162C127.645 293.245 88.0009 290.796 88.0009 234.667C88.0009 205.436 78.2476 187.059 65.9716 176C78.2476 164.941 88.0009 146.564 88.0009 117.333C88.0009 61.2042 127.645 58.7548 132.001 58.6668H146.668V29.3335H131.972C106.613 29.3922 58.6676 47.8722 58.6676 117.333C58.6676 158.4 34.0569 161.187 29.1289 161.333L29.3342 190.667C30.5369 190.667 58.6676 191.165 58.6676 234.667C58.6676 304.128 106.613 322.608 132.001 322.667ZM322.668 161.333C321.465 161.333 293.334 160.835 293.334 117.333C293.334 47.8722 245.389 29.3922 220.001 29.3335H205.334V58.6668H219.84C224.357 58.7548 264.001 61.2042 264.001 117.333C264.001 146.564 273.754 164.941 286.03 176C273.754 187.059 264.001 205.436 264.001 234.667C264.001 290.796 224.357 293.245 220.001 293.333H205.334V322.667H220.03C245.389 322.608 293.334 304.128 293.334 234.667C293.334 193.6 317.945 190.813 322.873 190.667L322.668 161.333Z" fill="#4CAF50"/>
</svg>
