<svg width="251" height="251" viewBox="0 0 251 251" fill="none" xmlns="http://www.w3.org/2000/svg">
<path d="M179.694 99.5424C166.486 41.3941 135.33 22.2867 131.983 14.9763C128.302 9.82038 124.318 0 124.318 0L124.265 0.512458V0.648417H124.255C124.236 0.783859 124.222 0.919897 124.213 1.05629V1.21317H124.192L124.171 1.48508V1.757H124.14C124.129 1.84067 124.129 1.94525 124.108 2.01846V2.23808H124.087C124.087 2.31129 124.087 2.39496 124.067 2.45771V2.66687H124.046L124.025 3.00154V3.02246L123.92 3.54537V3.62904H123.91L123.878 3.75454V3.93233H123.847V4.16242H123.795V4.35067H123.742V4.57029H123.7V4.769H123.659V4.94679H123.596V5.09321H123.554V5.28146H123.512V5.42787H123.46V5.56383H123.429V5.72071H123.387L123.376 5.76254V5.86712H123.345L123.334 5.92987V5.99262H123.314C123.303 6.02656 123.295 6.06165 123.293 6.09721L123.188 6.31683V6.33775C123.167 6.35951 123.15 6.38417 123.136 6.41096V6.49462H123.094V6.57829H123.042V6.66196H123.01V6.76654H122.947V6.91296H122.906V6.95479H122.864V7.03846H122.822V7.1535H122.78V7.23717H122.717V7.35221H122.676V7.43588H122.623V7.51954H122.592V7.62412H122.54V7.70779H122.498V7.77054H122.456V7.85421H122.393V7.94833H122.351V8.01108H122.299V8.09475H122.257V8.20979H122.205V8.25162H122.174V8.33529H122.111V8.37712H122.069V8.48171H122.027V8.52354H121.985V8.60721H121.933V8.66996H121.902L121.881 8.71179V8.75362H121.86L121.839 8.79546V8.80592H121.828C121.821 8.83349 121.807 8.85869 121.787 8.87912V8.9105H121.776L121.651 9.09875V9.10921L121.546 9.21379V9.23471L121.515 9.26608V9.29746H121.494L121.462 9.32883V9.33929H121.452L121.421 9.38112V9.42296H121.389L121.368 9.44387V9.46479H121.347C121.347 9.48571 121.326 9.48571 121.326 9.49617V9.52754H121.285L121.264 9.55892V9.62167H121.232V9.6635H121.19V9.72625H121.149V9.80992H121.096V9.72625H121.044V9.76808H121.002V9.83083H120.95V9.9145H120.898V9.95633H120.856V10.0191H120.814V10.0609H120.772V10.1446H120.709V10.1864H120.668V10.2492H120.615V10.291H120.573V10.3433H120.521V10.4479H120.5V10.4897H120.437V10.542H120.396V10.5629H120.354V10.6048H120.302V10.7093H120.26V10.7512H120.207V10.793H120.166V10.8557H120.113V10.8976H120.061V10.9394H120.019V10.9812H119.977V11.0858H119.935V11.1381H119.873V11.18H119.831V11.2218H119.779V11.2845H119.737V11.3264H119.684V11.3996H119.643V11.4414H119.58V11.5042H119.559V11.546H119.517V11.5878H119.465V11.6297H119.423V11.6924H119.371V11.7342H119.339L119.329 11.7552V11.7761H119.308L119.266 11.8179L119.224 11.8493V11.912H119.182V11.9643H119.141V12.0062H119.099V12.048H119.067L119.036 12.0794V12.1107H119.015L118.994 12.1317V12.163H118.973C118.921 12.2258 118.9 12.2676 118.827 12.3304C118.636 12.4604 118.458 12.6074 118.294 12.7696L118.063 12.9474V12.9579H118.053C117.88 13.0958 117.706 13.2318 117.53 13.3657V13.3762L116.767 14.0246V14.0142H116.746C116.15 14.5057 115.522 15.06 114.8 15.677V15.6875H114.79C113.012 17.2353 110.92 19.2224 108.567 21.6278L108.41 21.7847L108.369 21.8265C94.1452 36.5414 71.733 67.2052 69.359 116.757C69.1498 120.856 69.2021 124.841 69.4322 128.721V128.815C70.5722 148.341 76.7007 165.012 84.3667 178.555V178.566C87.4205 183.962 90.7149 188.867 94.0511 193.26V193.27C105.576 208.487 117.342 217.502 120.343 219.688C124.945 230.387 124.527 248.751 124.527 248.751L131.262 251C131.262 251 129.892 233.21 131.816 224.624C132.412 221.936 133.824 219.646 135.466 217.701C138.38 215.624 141.163 213.372 143.801 210.955C143.99 210.756 144.094 210.579 144.262 210.39C160.158 195.56 189.881 159.04 179.694 99.5424V99.5424Z" fill="#000"/>
</svg>
