<svg width="334" height="377" viewBox="0 0 334 377" fill="none" xmlns="http://www.w3.org/2000/svg">
<path d="M333.438 110.901C333.435 104.578 332.087 98.9913 329.362 94.1963C326.685 89.4812 322.675 85.5293 317.297 82.4046C272.905 56.7228 228.47 31.1195 184.093 5.41154C172.129 -1.51846 160.529 -1.26582 148.653 5.76366C130.984 16.2189 42.5198 67.0707 16.1586 82.3902C5.30225 88.6958 0.0195703 98.346 0.0169609 110.889C0 162.537 0.0169609 214.183 0 265.832C0.00260938 272.016 1.29295 277.494 3.89841 282.217C6.57693 287.075 10.6423 291.136 16.1442 294.331C42.5067 309.651 130.983 360.498 148.648 370.956C160.529 377.99 172.129 378.241 184.097 371.308C228.476 345.599 272.913 319.997 317.312 294.315C322.814 291.121 326.879 287.058 329.558 282.204C332.159 277.481 333.452 272.003 333.455 265.818C333.455 265.818 333.455 162.55 333.438 110.901" fill="#5C8DBC"/>
<path d="M167.237 187.858L3.89844 282.218C6.57696 287.076 10.6424 291.136 16.1442 294.332C42.5067 309.651 130.983 360.499 148.648 370.957C160.529 377.99 172.129 378.242 184.097 371.309C228.476 345.6 272.913 319.998 317.312 294.316C322.814 291.122 326.879 287.059 329.558 282.205L167.237 187.858" fill="#1A4674"/>
<path d="M118.859 215.808C128.364 232.456 146.231 243.685 166.728 243.685C187.351 243.685 205.321 232.314 214.777 215.488L167.238 187.858L118.859 215.808" fill="#1A4674"/>
<path d="M333.439 110.901C333.437 104.578 332.089 98.991 329.364 94.196L167.239 187.857L329.559 282.204C332.161 277.481 333.454 272.003 333.456 265.817C333.456 265.817 333.456 162.55 333.439 110.901" fill="#1B598E"/>
<path d="M324.514 194.602H311.83V207.331H299.143V194.602H286.46V181.877H299.143V169.151H311.83V181.877H324.514V194.602Z" fill="white"/>
<path d="M278.23 194.602H265.548V207.331H252.863V194.602H240.179V181.877H252.863V169.151H265.548V181.877H278.23V194.602Z" fill="white"/>
<path d="M214.775 215.487C205.318 232.313 187.349 243.685 166.726 243.685C146.229 243.685 128.361 232.456 118.857 215.808C114.082 207.454 111.574 197.99 111.584 188.36C111.584 157.806 136.273 133.037 166.726 133.037C187.09 133.037 204.864 144.126 214.416 160.604L262.612 132.758C243.456 99.5793 207.69 77.2578 166.726 77.2578C105.567 77.2578 55.9902 127.001 55.9902 188.36C55.9902 208.49 61.3277 227.368 70.6562 243.651C89.7647 277.005 125.632 299.464 166.726 299.464C207.895 299.464 243.818 276.915 262.899 243.462L214.775 215.487Z" fill="white"/>
</svg>
