<svg width="272" height="435" viewBox="0 0 272 435" fill="none" xmlns="http://www.w3.org/2000/svg">
<rect x="1" y="82" width="270" height="270" fill="black"/>
<path d="M229.278 172.068C231.292 169.987 233.337 168.691 235.415 168.18C237.584 167.694 240.208 167.863 243.287 168.688C246.637 169.586 248.592 170.983 249.151 172.88C249.711 174.777 248.768 178.115 246.322 182.895C242.133 191.284 238.283 199.133 234.772 206.442C231.285 213.661 229.765 216.796 230.213 215.849C228.167 219.862 226.032 222.396 223.809 223.45C221.7 224.438 218.789 224.435 215.076 223.44C209.1 221.838 207.252 216.781 209.533 208.269C210.121 205.709 210.553 203.738 210.826 202.356C212.374 195.491 210.911 189.179 206.437 183.418C201.987 177.567 195.371 173.465 186.587 171.111C170.558 166.816 154.855 168.917 139.475 177.414C124.211 185.844 111.851 199.372 102.396 217.997C92.9405 236.622 90.2579 252.791 94.348 266.504C98.5529 280.151 108.715 289.134 124.834 293.453C130.086 294.861 135.804 295.616 141.988 295.72C148.196 295.734 154.643 295.035 161.33 293.624C164.296 293.06 168.624 291.939 174.315 290.26C180.12 288.516 183.929 287.887 185.74 288.372C188.547 289.124 190.466 290.657 191.495 292.971C192.55 295.195 192.441 297.592 191.17 300.163C189.808 302.71 187.474 304.9 184.169 306.731C180.888 308.473 175.456 310.269 167.875 312.12C157.847 314.771 148.398 316.17 139.526 316.316C130.745 316.487 122.099 315.432 113.587 313.151C91.2195 307.158 76.5324 294.778 69.5255 276.013C62.6334 257.181 65.0682 236.141 76.8297 212.893C88.609 189.941 105.714 172.832 128.144 161.566C150.665 150.324 173.109 147.7 195.476 153.693C201.452 155.295 207.19 157.608 212.688 160.635C218.185 163.661 223.716 167.472 229.278 172.068Z" fill="#FFFF80"/>
</svg>
