<svg width="397" height="397" viewBox="0 0 397 397" fill="none" xmlns="http://www.w3.org/2000/svg">
<path d="M231.583 33.0833H99.2498C90.4756 33.0833 82.0607 36.5688 75.8564 42.7731C69.6521 48.9775 66.1665 57.3923 66.1665 66.1666V330.833C66.1665 339.608 69.6521 348.022 75.8564 354.227C82.0607 360.431 90.4756 363.917 99.2498 363.917H297.75C306.524 363.917 314.939 360.431 321.143 354.227C327.348 348.022 330.833 339.608 330.833 330.833V132.333L231.583 33.0833ZM156.252 288.023C160.801 288.023 165.863 287.014 168.857 285.84L171.14 297.634C168.361 299.024 162.108 300.512 153.986 300.512C130.877 300.512 118.967 286.138 118.967 267.082C118.951 244.287 135.228 231.583 155.458 231.583C163.299 231.583 169.238 233.171 171.917 234.561L168.841 246.57C164.812 244.912 160.493 244.074 156.137 244.105C144.127 244.105 134.798 251.351 134.798 266.222C134.814 279.587 142.771 288.023 156.252 288.023V288.023ZM197.458 300.512C189.832 300.512 182.289 298.544 178.517 296.46L181.594 283.954C185.663 286.038 191.916 288.123 198.367 288.123C205.315 288.123 208.987 285.244 208.987 280.877C208.987 276.709 205.811 274.327 197.772 271.449C186.656 267.578 179.427 261.441 179.427 251.714C179.427 240.317 188.939 231.583 204.719 231.583C212.246 231.583 217.804 233.171 221.774 234.941L218.399 247.149C214.038 245.036 209.251 243.95 204.405 243.973C197.855 243.973 194.695 246.967 194.695 250.424C194.695 254.692 198.467 256.578 207.085 259.853C218.896 264.22 224.454 270.373 224.454 279.786C224.437 291.001 215.802 300.512 197.458 300.512V300.512ZM251.053 300.512C243.427 300.512 235.884 298.544 232.112 296.46L235.189 283.954C239.258 286.038 245.511 288.123 251.962 288.123C258.91 288.123 262.582 285.244 262.582 280.877C262.582 276.709 259.406 274.327 251.367 271.449C240.251 267.578 233.022 261.441 233.022 251.714C233.022 240.317 242.534 231.583 258.314 231.583C265.841 231.583 271.399 233.171 275.369 234.941L271.994 247.149C267.633 245.036 262.846 243.95 258 243.973C251.45 243.973 248.29 246.967 248.29 250.424C248.29 254.692 252.062 256.578 260.68 259.853C272.491 264.22 278.049 270.373 278.049 279.786C278.049 291.001 269.397 300.512 251.053 300.512V300.512ZM231.583 148.875H215.041V66.1666L297.75 148.875H231.583Z" fill="#4CAF50"/>
</svg>
