<svg width="363" height="415" viewBox="0 0 363 415" fill="none" xmlns="http://www.w3.org/2000/svg">
<path d="M363 59.2858V96.3392C363 128.993 281.703 155.625 181.5 155.625C81.2966 155.625 0 128.993 0 96.3392V59.2858C0 26.6321 81.2966 0 181.5 0C281.703 0 363 26.6321 363 59.2858ZM363 142.656V226.027C363 258.68 281.703 285.312 181.5 285.312C81.2966 285.312 0 258.68 0 226.027V142.656C38.9941 169.52 110.365 182.026 181.5 182.026C252.635 182.026 324.005 169.52 363 142.656ZM363 272.344V355.714C363 388.368 281.703 415 181.5 415C81.2966 415 0 388.368 0 355.714V272.344C38.9941 299.208 110.365 311.714 181.5 311.714C252.635 311.714 324.005 299.208 363 272.344Z" fill="#212121"/>
</svg>
