<svg width="126" height="126" viewBox="0 0 126 126" fill="none" xmlns="http://www.w3.org/2000/svg">
<path d="M84 84C95.598 84 105 74.598 105 63C105 51.402 95.598 42 84 42C72.402 42 63 51.402 63 63C63 74.598 72.402 84 84 84Z" fill="#19BCFE"/>
<path fill-rule="evenodd" clip-rule="evenodd" d="M42 126C47.5695 126 52.911 123.788 56.8492 119.849C60.7875 115.911 63 110.57 63 105V84H42C36.4305 84 31.089 86.2125 27.1508 90.1508C23.2125 94.089 21 99.4305 21 105C21 110.57 23.2125 115.911 27.1508 119.849C31.089 123.788 36.4305 126 42 126V126Z" fill="#09CF83"/>
<path fill-rule="evenodd" clip-rule="evenodd" d="M42 84H63V42H42C36.4305 42 31.089 44.2125 27.1508 48.1508C23.2125 52.089 21 57.4305 21 63C21 68.5695 23.2125 73.911 27.1508 77.8492C31.089 81.7875 36.4305 84 42 84V84Z" fill="#A259FF"/>
<path fill-rule="evenodd" clip-rule="evenodd" d="M42 42H63V0H42C36.4305 0 31.089 2.21249 27.1508 6.15076C23.2125 10.089 21 15.4305 21 21C21 26.5695 23.2125 31.911 27.1508 35.8492C31.089 39.7875 36.4305 42 42 42V42Z" fill="#F24E1E"/>
<path fill-rule="evenodd" clip-rule="evenodd" d="M84 42H63V0H84C89.5695 0 94.911 2.21249 98.8492 6.15076C102.788 10.089 105 15.4305 105 21C105 26.5695 102.788 31.911 98.8492 35.8492C94.911 39.7875 89.5695 42 84 42Z" fill="#FF7262"/>
</svg>
