<svg width="221" height="221" viewBox="0 0 221 221" fill="none" xmlns="http://www.w3.org/2000/svg">
<g clip-path="url(#clip0)">
<path d="M221.037 17.1222V7.37745C219.072 7.37745 217.187 6.59671 215.797 5.20699C214.407 3.81727 213.627 1.9324 213.627 -0.032959H203.882C203.8 1.87705 202.983 3.68145 201.602 5.00381C200.221 6.32617 198.383 7.06435 196.472 7.06435C194.56 7.06435 192.722 6.32617 191.341 5.00381C189.96 3.68145 189.144 1.87705 189.061 -0.032959H179.282C179.166 1.93286 178.275 3.77238 176.804 5.08155C175.333 6.39072 173.402 7.06247 171.436 6.94926C169.628 6.82978 167.925 6.05464 166.647 4.76919C165.369 3.48374 164.604 1.77629 164.496 -0.032959H154.751C154.647 1.93686 153.767 3.78523 152.303 5.10701C150.839 6.42878 148.91 7.11611 146.94 7.01832C145.103 6.91586 143.369 6.14007 142.068 4.83925C140.767 3.53842 139.991 1.80383 139.889 -0.032959H130.144C130.062 1.87705 129.245 3.68145 127.864 5.00381C126.483 6.32617 124.645 7.06435 122.734 7.06435C120.822 7.06435 118.984 6.32617 117.603 5.00381C116.222 3.68145 115.406 1.87705 115.323 -0.032959H105.578C105.523 0.941048 105.276 1.89454 104.851 2.7729C104.427 3.65126 103.833 4.43724 103.104 5.08583C102.376 5.73441 101.526 6.23285 100.604 6.55261C99.6826 6.87237 98.7068 7.00716 97.733 6.94926C95.9226 6.82363 94.2187 6.04767 92.9355 4.76448C91.6523 3.48129 90.8764 1.7774 90.7507 -0.032959H81.006C80.982 0.936605 80.766 1.89179 80.3707 2.77742C79.9753 3.66305 79.4084 4.46156 78.7027 5.12683C77.997 5.7921 77.1664 6.31094 76.259 6.65338C75.3516 6.99581 74.3854 7.15506 73.4161 7.12192C71.5396 7.05349 69.7585 6.27792 68.4302 4.95084C67.1018 3.62377 66.3245 1.8434 66.2543 -0.032959H56.5096C56.4507 1.89415 55.6438 3.72263 54.2599 5.06498C52.8759 6.40733 51.0237 7.15805 49.0957 7.15805C47.1677 7.15805 45.3154 6.40733 43.9315 5.06498C42.5475 3.72263 41.7407 1.89415 41.6818 -0.032959H31.9371C31.8579 1.92722 31.0097 3.77729 29.5761 5.11649C28.1426 6.45569 26.2391 7.17619 24.2781 7.12192C22.4017 7.05349 20.6205 6.27792 19.2922 4.95084C17.9638 3.62377 17.1865 1.8434 17.1163 -0.032959H7.37159C7.37159 1.94913 6.57737 3.85526 5.20993 5.21579C3.81237 6.59805 1.92684 7.37459 -0.0388184 7.37745V17.1222C1.91896 17.2013 3.76625 18.0505 5.10105 19.4849C6.43585 20.9193 7.15012 22.8228 7.08843 24.7812C7.03172 26.6567 6.26364 28.4405 4.94003 29.7705C3.61643 31.1005 1.83643 31.8772 -0.0388184 31.943V41.6877C0.932406 41.7215 1.88742 41.9466 2.77153 42.3501C3.65565 42.7535 4.45151 43.3273 5.11354 44.0388C5.77558 44.7502 6.29079 45.5852 6.62967 46.4961C6.96855 47.4069 7.12444 48.3756 7.08843 49.3467C7.03172 51.2223 6.26364 53.006 4.94003 54.336C3.61643 55.666 1.83643 56.4427 -0.0388184 56.5085V66.2532C1.92654 66.2532 3.81141 67.034 5.20113 68.4237C6.59085 69.8134 7.37159 71.6983 7.37159 73.6636C7.37159 75.629 6.59085 77.5139 5.20113 78.9036C3.81141 80.2933 1.92654 81.074 -0.0388184 81.074V90.8187C0.951075 90.7885 1.93697 90.9573 2.86038 91.3153C3.7838 91.6732 4.62593 92.2129 5.33683 92.9024C6.04774 93.5919 6.61294 94.4172 6.99891 95.3292C7.38488 96.2413 7.58376 97.2215 7.58376 98.2119C7.58376 99.2022 7.38488 100.183 6.99891 101.095C6.61294 102.007 6.04774 102.832 5.33683 103.521C4.62593 104.211 3.7838 104.751 2.86038 105.109C1.93697 105.466 0.951075 105.635 -0.0388184 105.605V115.384C0.932406 115.418 1.88742 115.643 2.77153 116.047C3.65565 116.45 4.45151 117.024 5.11354 117.735C5.77558 118.447 6.29079 119.282 6.62967 120.193C6.96855 121.103 7.12444 122.072 7.08843 123.043C7.02963 124.915 6.25985 126.694 4.93576 128.018C3.61168 129.342 1.8328 130.112 -0.0388184 130.171V139.95C0.951075 139.92 1.93697 140.088 2.86038 140.446C3.7838 140.804 4.62593 141.344 5.33683 142.033C6.04774 142.723 6.61294 143.548 6.99891 144.46C7.38488 145.372 7.58376 146.353 7.58376 147.343C7.58376 148.333 7.38488 149.314 6.99891 150.226C6.61294 151.138 6.04774 151.963 5.33683 152.652C4.62593 153.342 3.7838 153.882 2.86038 154.24C1.93697 154.597 0.951075 154.766 -0.0388184 154.736V164.515C0.929969 164.547 1.88293 164.77 2.76557 165.171C3.64821 165.571 4.44323 166.142 5.10516 166.85C5.76709 167.558 6.28296 168.39 6.62326 169.298C6.96357 170.205 7.12164 171.171 7.08843 172.14C7.03662 174.017 6.27012 175.804 4.94549 177.135C3.62086 178.466 1.83805 179.241 -0.0388184 179.302V189.046C1.88829 189.105 3.71677 189.912 5.05912 191.296C6.40147 192.68 7.15219 194.532 7.15219 196.46C7.15219 198.388 6.40147 200.24 5.05912 201.624C3.71677 203.008 1.88829 203.815 -0.0388184 203.874V213.653C4.02896 213.653 7.37159 216.961 7.37159 221.029H17.1163C17.2459 219.066 18.1476 217.233 19.6242 215.933C21.1008 214.632 23.0322 213.969 24.9963 214.088C28.7326 214.337 31.6816 217.293 31.9371 221.029H41.6818C41.7643 219.119 42.5811 217.315 43.9618 215.992C45.3425 214.67 47.1805 213.932 49.0922 213.932C51.004 213.932 52.842 214.67 54.2227 215.992C55.6034 217.315 56.4202 219.119 56.5026 221.029H66.2474C66.3298 219.119 67.1466 217.315 68.5273 215.992C69.908 214.67 71.746 213.932 73.6578 213.932C75.5696 213.932 77.4075 214.67 78.7882 215.992C80.1689 217.315 80.9857 219.119 81.0682 221.029H90.8129C90.8991 219.074 91.7504 217.231 93.1832 215.897C94.616 214.564 96.5155 213.847 98.4719 213.902C100.343 213.973 102.118 214.746 103.445 216.066C104.772 217.387 105.554 219.159 105.634 221.029H115.378C115.489 219.065 116.373 217.224 117.836 215.909C119.3 214.595 121.224 213.913 123.189 214.012C126.967 214.199 130.02 217.251 130.206 221.029H139.951C140.061 219.065 140.945 217.224 142.409 215.909C143.872 214.595 145.797 213.913 147.762 214.012C151.54 214.199 154.592 217.251 154.779 221.029H164.523C164.652 219.147 165.49 217.383 166.869 216.095C168.248 214.807 170.064 214.091 171.951 214.091C173.838 214.091 175.654 214.807 177.033 216.095C178.412 217.383 179.25 219.147 179.379 221.029H189.13C189.231 219.136 190.053 217.354 191.429 216.049C192.804 214.744 194.628 214.017 196.523 214.017C198.419 214.017 200.243 214.744 201.618 216.049C202.994 217.354 203.816 219.136 203.917 221.029H213.62C213.629 219.07 214.414 217.194 215.802 215.812C217.191 214.429 219.071 213.653 221.03 213.653V203.874C219.067 203.751 217.232 202.858 215.924 201.389C214.617 199.919 213.942 197.993 214.048 196.029C214.168 194.22 214.943 192.517 216.228 191.239C217.514 189.961 219.221 189.196 221.03 189.088V179.343C219.12 179.261 217.316 178.444 215.993 177.063C214.671 175.682 213.933 173.844 213.933 171.933C213.933 170.021 214.671 168.183 215.993 166.802C217.316 165.421 219.12 164.605 221.03 164.522V154.743C219.068 154.617 217.235 153.722 215.928 152.254C214.621 150.785 213.946 148.861 214.048 146.897C214.168 145.089 214.943 143.386 216.228 142.108C217.514 140.83 219.221 140.065 221.03 139.957V130.177C220.056 130.133 219.1 129.897 218.218 129.482C217.336 129.067 216.544 128.481 215.889 127.759C215.233 127.037 214.727 126.193 214.399 125.274C214.072 124.356 213.929 123.382 213.979 122.408C214.081 120.571 214.857 118.837 216.158 117.536C217.459 116.235 219.193 115.459 221.03 115.357V105.653C219.063 105.524 217.227 104.623 215.92 103.148C214.613 101.673 213.94 99.7415 214.048 97.7733C214.168 95.9648 214.943 94.2619 216.228 92.9841C217.514 91.7063 219.221 90.9413 221.03 90.8326V81.0878C219.12 81.0054 217.316 80.1886 215.993 78.8079C214.671 77.4272 213.933 75.5892 213.933 73.6774C213.933 71.7656 214.671 69.9277 215.993 68.547C217.316 67.1663 219.12 66.3495 221.03 66.267V56.5223C219.063 56.3925 217.227 55.4923 215.92 54.017C214.613 52.5417 213.94 50.6104 214.048 48.6423C214.179 46.8378 214.958 45.1414 216.241 43.8659C217.524 42.5904 219.225 41.8217 221.03 41.7015V31.9568C219.067 31.8566 217.223 30.9831 215.901 29.5271C214.58 28.0712 213.889 26.1513 213.979 24.1873C214.075 22.3484 214.849 20.6104 216.151 19.3083C217.453 18.0063 219.191 17.2324 221.03 17.136L221.037 17.1222ZM183.564 107.732L124.605 165.075C129.93 165.903 135.11 167.119 140.648 167.119C154.136 167.119 169.648 163.024 180.118 158.7L174.758 183.984C159.323 191.394 149.861 192.016 140.648 192.016C130.545 192.016 120.903 188.701 111.055 188.701C105.475 188.701 97.4567 189.136 92.5256 192.41L81.8417 173.487L142.665 113.271H72.6702L59.3204 175.924H30.1208L60.5428 32.4748H157.154L150.973 61.4327H83.7823L78.0294 88.3739H188.308L183.564 107.732Z" fill="#FF1111"/>
</g>
<defs>
<clipPath id="clip0">
<rect width="221" height="221" fill="white"/>
</clipPath>
</defs>
</svg>
