<svg width="350" height="350" viewBox="0 0 350 350" fill="none" xmlns="http://www.w3.org/2000/svg">
<path d="M63.4358 269.062L65.2952 266.47L153.014 100.067L153.2 98.3057L114.536 25.6808C113.828 24.3527 112.72 23.2808 111.37 22.6168C110.019 21.9527 108.494 21.7301 107.01 21.9805C105.526 22.2308 104.159 22.9414 103.101 24.0118C102.043 25.0821 101.348 26.458 101.115 27.9448L63.4358 269.062Z" fill="#FFC24A"/>
<path d="M64.5303 267.093L65.9303 264.359L152.741 99.6838L114.176 26.7744C113.54 25.5065 112.51 24.4787 111.241 23.8452C109.972 23.2116 108.531 23.0063 107.136 23.26C105.74 23.5138 104.464 24.2129 103.499 25.2527C102.534 26.2925 101.932 27.6169 101.783 29.0276L64.5303 267.093Z" fill="#FFA712"/>
<path d="M181.387 153.234L210.174 123.703L181.376 68.7856C180.742 67.6037 179.8 66.6158 178.649 65.9272C177.498 65.2385 176.182 64.8748 174.841 64.8748C173.5 64.8748 172.184 65.2385 171.033 65.9272C169.882 66.6158 168.939 67.6037 168.306 68.7856L152.917 98.12V100.625L181.387 153.234Z" fill="#F4BD62"/>
<path d="M180.872 152.031L208.861 123.375L180.872 69.9998C180.414 68.8444 179.631 67.8463 178.619 67.1256C177.606 66.405 176.407 65.9926 175.165 65.9383C173.923 65.884 172.693 66.1899 171.621 66.8194C170.549 67.4488 169.682 68.3748 169.125 69.4857L153.66 99.3341L153.2 100.854L180.872 152.031Z" fill="#FFA50E"/>
<path d="M63.457 269.074L64.2992 268.221L67.3508 266.985L179.57 155.182L180.991 151.31L153.002 97.9568L63.457 269.074V269.074Z" fill="#F6820C"/>
<path d="M184.973 325.457L286.561 268.811L257.533 90.1911C257.325 88.932 256.774 87.7545 255.94 86.7879C255.107 85.8214 254.023 85.1032 252.808 84.7122C251.593 84.3212 250.294 84.2724 249.053 84.5714C247.813 84.8703 246.678 85.5054 245.775 86.4068L63.4358 269.063L164.422 325.446C167.561 327.198 171.097 328.117 174.692 328.117C178.287 328.117 181.823 327.198 184.962 325.446" fill="#FDE068"/>
<path d="M285.632 268.341L256.844 91.0656C256.794 89.8613 256.387 88.6991 255.675 87.7261C254.963 86.7531 253.979 86.0131 252.847 85.5997C251.714 85.1864 250.485 85.1182 249.314 85.4039C248.143 85.6896 247.083 86.3163 246.268 87.2047L64.5303 268.723L164.401 324.505C167.515 326.242 171.022 327.154 174.589 327.154C178.155 327.154 181.663 326.242 184.777 324.505L285.632 268.341Z" fill="#FCCA3F"/>
<path d="M184.973 323.75C181.834 325.502 178.298 326.422 174.703 326.422C171.108 326.422 167.572 325.502 164.433 323.75L64.267 268.209L63.4358 269.062L164.422 325.445C167.561 327.197 171.097 328.117 174.692 328.117C178.287 328.117 181.823 327.197 184.962 325.445L286.561 268.811L286.309 267.28L184.973 323.75Z" fill="#EEAB37"/>
</svg>
