<svg width="265" height="172" viewBox="0 0 265 172" fill="none" xmlns="http://www.w3.org/2000/svg">
<rect x="4" y="4" width="207" height="42" rx="12" fill="#858585" stroke="#393939" stroke-width="8"/>
<rect x="46" y="20" width="130" height="10" rx="5" fill="#393939"/>
<circle cx="185" cy="24" r="4" fill="#C2A147"/>
<circle cx="197" cy="24" r="4" fill="#BB733D"/>
<rect x="15" y="18" width="22" height="4" rx="2" fill="#C4C4C4"/>
<rect x="15" y="28" width="22" height="4" rx="2" fill="#C4C4C4"/>
<rect x="4" y="115" width="207" height="42" rx="12" fill="#858585" stroke="#393939" stroke-width="8"/>
<rect x="46" y="131" width="130" height="10" rx="5" fill="#393939"/>
<circle cx="185" cy="135" r="4" fill="#C2A147"/>
<circle cx="197" cy="135" r="4" fill="#BB733D"/>
<rect x="15" y="129" width="22" height="4" rx="2" fill="#C4C4C4"/>
<rect x="15" y="139" width="22" height="4" rx="2" fill="#C4C4C4"/>
<rect x="4" y="60" width="207" height="42" rx="12" fill="#858585" stroke="#393939" stroke-width="8"/>
<rect x="46" y="76" width="130" height="10" rx="5" fill="#393939"/>
<circle cx="185" cy="80" r="4" fill="#C2A147"/>
<circle cx="197" cy="80" r="4" fill="#BB733D"/>
<rect x="15" y="74" width="22" height="4" rx="2" fill="#C4C4C4"/>
<rect x="15" y="84" width="22" height="4" rx="2" fill="#C4C4C4"/>
<path d="M258.74 139.032L223.413 114.152C219.744 111.409 215.993 110.348 213.082 110.745C220.849 99.7488 224.059 86.1735 222.039 72.8633C220.019 59.5531 212.927 47.5411 202.247 39.3442C191.568 31.1474 178.13 27.4019 164.75 28.8926C151.37 30.3833 139.087 36.9944 130.473 47.3407C121.86 57.6871 117.585 70.9656 118.544 84.3939C119.503 97.8223 125.622 110.358 135.619 119.375C145.616 128.392 158.715 133.19 172.17 132.764C185.626 132.337 198.395 126.72 207.801 117.088C207.93 120.024 209.662 123.52 213.025 126.631L243.895 156.862C249.154 161.728 256.987 161.465 261.31 156.274C265.632 151.082 264.469 143.322 258.732 139.041L258.74 139.032ZM173.684 115.27C164.509 116.108 155.376 113.268 148.296 107.373C141.215 101.478 136.766 93.0115 135.927 83.8363C135.089 74.6612 137.929 65.5287 143.824 58.448C149.719 51.3672 158.186 46.9182 167.361 46.0797C176.536 45.2412 185.668 48.0819 192.749 53.9768C199.83 59.8717 204.279 68.338 205.117 77.5132C205.956 86.6883 203.115 95.8208 197.22 102.902C191.325 109.982 182.859 114.431 173.684 115.27Z" fill="#F8EAE8"/>
<circle cx="169.55" cy="80.4483" r="36.634" transform="rotate(-5.22164 169.55 80.4483)" fill="#FAD64B"/>
<path d="M167.073 53.4019L144.775 66.1488L147.815 99.4136L165.606 89.2483L167.313 107.926L194.125 92.5753L191.321 61.895L167.073 53.4019Z" fill="#252525"/>
<path d="M167.073 53.4019L144.775 66.1488L147.815 99.4136L165.606 89.2483L167.313 107.926L194.125 92.5753L191.321 61.895L167.073 53.4019Z" fill="#FAD64B"/>
<path d="M167.217 58.463L149.449 68.7119L150.22 77.1412L167.987 66.8893L187.331 73.7497L186.56 65.3204L167.217 58.463Z" fill="#CD3D20"/>
<path d="M168.539 72.9298L150.771 83.1772L151.542 91.608L169.309 81.3484L188.653 88.2165L187.882 79.7857L168.539 72.9298Z" fill="#CD3D20"/>
<path d="M187.025 91.2217L177.407 87.9757L170.584 91.7718L171.332 99.9475L187.025 91.2217Z" fill="#CD3D20"/>
<circle cx="158.04" cy="51.6943" r="2.52648" transform="rotate(-5.22164 158.04 51.6943)" fill="#FBDF7E"/>
<circle cx="189.398" cy="96.3974" r="2.52648" transform="rotate(-5.22164 189.398 96.3974)" fill="#FBDF7E"/>
<circle cx="139.579" cy="71.7748" r="2.52648" transform="rotate(-5.22164 139.579 71.7748)" fill="#EF7830"/>
<circle cx="197.575" cy="95.6503" r="2.52648" transform="rotate(-5.22164 197.575 95.6503)" fill="#EF7830"/>
<rect x="139.593" y="99.6812" width="20.2119" height="2.52648" rx="1.26324" transform="rotate(-5.22164 139.593 99.6812)" fill="#EF7B30"/>
</svg>
