<svg width="227" height="129" viewBox="0 0 227 129" fill="none" xmlns="http://www.w3.org/2000/svg">
<path d="M72.832 67.624C94.24 66.568 105.424 66.04 106.384 66.04C107.344 66.04 107.824 66.184 107.824 66.472C107.824 67.24 106.816 67.864 104.8 68.344C92.032 68.344 80.848 69.208 71.248 70.936C64.24 83.896 55.936 95.512 46.336 105.784C48.064 106.264 49.936 106.696 51.952 107.08C54.064 107.464 55.12 107.8 55.12 108.088C55.12 108.568 54.4 108.808 52.96 108.808C51.52 108.808 48.928 108.184 45.184 106.936C31.456 121.336 19.072 128.536 8.032 128.536C3.232 128.536 0.832 126.904 0.832 123.64C0.832 121.72 1.216 120.472 1.984 119.896V121.336C1.984 124.888 4 126.664 8.032 126.664C17.92 126.664 28.768 119.56 40.576 105.352C38.368 104.392 36.688 103.528 35.536 102.76C26.416 114.184 18.448 119.896 11.632 119.896C10.768 119.896 10.336 119.608 10.336 119.032C10.336 118.552 10.624 118.216 11.2 118.024C11.68 117.928 12.976 117.688 15.088 117.304C21.04 115.48 27.424 110.344 34.24 101.896C29.536 98.44 27.184 94.552 27.184 90.232C27.184 85.912 30.448 81.736 36.976 77.704C41.68 74.728 47.008 72.472 52.96 70.936C62.464 50.104 67.6 30.472 68.368 12.04C66.928 11.464 65.2 11.176 63.184 11.176C56.272 11.176 49.024 14.056 41.44 19.816C33.856 25.576 30.064 31.576 30.064 37.816C30.064 43.96 34.192 49.144 42.448 53.368C42.736 53.464 42.88 53.8 42.88 54.376C42.88 54.952 42.544 55.24 41.872 55.24H41.296C37.072 53.512 33.232 51.016 29.776 47.752C26.416 44.488 24.736 40.888 24.736 36.952C24.736 31.48 27.76 26.296 33.808 21.4C38.608 17.272 43.648 14.344 48.928 12.616C54.304 10.888 59.344 10.024 64.048 10.024C65.2 10.024 66.64 10.12 68.368 10.312V5.41599C68.368 4.64799 68.656 4.26399 69.232 4.26399C69.616 4.26399 69.856 6.37599 69.952 10.6C79.744 12.616 84.64 19.24 84.64 30.472C84.64 39.88 80.704 52.264 72.832 67.624ZM117.616 121.768C106.768 121.768 101.344 115.576 101.344 103.192C101.344 95.032 103.792 84.04 108.688 70.216L125.968 28.312L131.872 13.48C132.736 11.272 133.456 10.168 134.032 10.168C134.704 10.168 135.04 10.6 135.04 11.464C135.04 13.096 132.544 21.064 127.552 35.368C122.656 49.672 119.008 60.856 116.608 68.92C112.576 83.32 110.56 94.648 110.56 102.904C110.56 114.136 113.968 119.752 120.784 119.752C123.568 119.752 126.496 118.696 129.568 116.584C132.352 114.568 137.248 110.296 144.256 103.768L144.544 103.912C144.544 104.104 144.4 104.44 144.112 104.92C140.944 109.528 136.912 113.464 132.016 116.728C127.216 120.088 122.416 121.768 117.616 121.768ZM77.152 27.304C77.152 19.912 74.752 15.064 69.952 12.76C69.76 29.56 64.72 48.808 54.832 70.504C58.576 69.544 61.696 68.92 64.192 68.632C72.832 50.872 77.152 37.096 77.152 27.304ZM61.888 72.808C56.512 74.44 53.248 75.496 52.096 75.976C47.392 85.576 42.352 93.928 36.976 101.032C38.224 102.28 39.808 103.24 41.728 103.912C49.024 94.984 55.744 84.616 61.888 72.808ZM32.944 93.4C32.944 95.704 33.904 97.912 35.824 100.024C40.528 93.784 45.28 86.056 50.08 76.84C38.656 82.024 32.944 87.544 32.944 93.4ZM183.867 74.536L187.611 74.392H188.331C189.003 74.392 189.339 74.536 189.339 74.824C189.339 75.784 188.475 76.312 186.747 76.408C172.923 77.368 164.763 78.04 162.267 78.424C150.747 92.824 139.563 104.056 128.715 112.12C131.307 113.368 135.579 114.52 141.531 115.576C142.395 115.672 142.827 115.96 142.827 116.44C142.827 116.92 142.347 117.16 141.387 117.16C137.547 117.16 132.843 115.864 127.275 113.272C117.867 119.992 109.707 123.352 102.795 123.352C98.3792 123.352 96.1712 121.96 96.1712 119.176C96.1712 117.16 96.7472 115.72 97.8992 114.856C97.6112 115.72 97.4672 116.632 97.4672 117.592C97.4672 120.184 99.2912 121.48 102.939 121.48C109.275 121.48 116.571 118.36 124.827 112.12C123.867 111.64 122.379 110.728 120.363 109.384C113.835 114.088 108.651 116.44 104.811 116.44C104.139 116.44 103.803 116.248 103.803 115.864C103.803 115.192 104.283 114.808 105.243 114.712C110.043 113.08 114.507 110.776 118.635 107.8C115.755 105.016 114.315 102.136 114.315 99.16C114.315 93.688 118.683 88.744 127.419 84.328C133.179 81.352 139.947 79.096 147.723 77.56C161.067 59.992 171.291 41.944 178.395 23.416C178.779 22.552 180.411 17.368 183.291 7.864C183.387 7.19199 183.771 6.85599 184.443 6.85599C184.539 6.952 184.587 7.048 184.587 7.144C184.587 14.824 180.267 26.872 171.627 43.288C165.291 55.48 158.427 66.712 151.035 76.984L157.947 76.264C164.283 67.624 171.243 56.152 178.827 41.848C186.507 27.544 190.347 16.84 190.347 9.736C190.347 5.32 188.379 2.824 184.443 2.24799C183.579 2.05599 183.147 1.72 183.147 1.24C183.147 0.759997 183.675 0.519998 184.731 0.519998C188.187 0.519998 190.923 1.624 192.939 3.832C194.859 6.232 195.819 9.16 195.819 12.616C195.819 20.392 192.027 31.288 184.443 45.304C179.067 55 172.395 65.128 164.427 75.688C172.875 74.92 179.355 74.536 183.867 74.536ZM226.059 100.744C226.059 102.28 225.003 104.44 222.891 107.224C220.779 110.104 218.811 112.024 216.987 112.984C215.163 114.04 212.907 114.568 210.219 114.568C207.531 114.568 204.363 113.08 200.715 110.104C197.067 107.224 194.331 103.816 192.507 99.88C190.779 96.04 189.915 90.52 189.915 83.32C189.915 76.024 190.635 66.28 192.075 54.088C193.515 41.8 194.331 34.216 194.523 31.336C194.715 28.36 195.099 26.872 195.675 26.872C196.539 26.872 197.019 27.88 197.115 29.896V52.792C197.115 78.136 199.179 95.416 203.307 104.632C205.803 110.296 208.683 113.128 211.947 113.128C216.267 113.128 220.971 109 226.059 100.744ZM155.499 79.432C153.291 79.912 150.699 80.584 147.723 81.448C139.371 92.2 130.971 100.936 122.523 107.656C123.387 108.808 124.683 109.912 126.411 110.968C135.243 103.96 144.939 93.448 155.499 79.432ZM143.979 82.6C128.427 88.744 120.651 95.272 120.651 102.184C120.651 103.336 120.891 104.536 121.371 105.784C128.667 99.928 136.203 92.2 143.979 82.6Z" fill="#FB7A03"/>
<path d="M72.832 67.624C94.24 66.568 105.424 66.04 106.384 66.04C107.344 66.04 107.824 66.184 107.824 66.472C107.824 67.24 106.816 67.864 104.8 68.344C92.032 68.344 80.848 69.208 71.248 70.936C64.24 83.896 55.936 95.512 46.336 105.784C48.064 106.264 49.936 106.696 51.952 107.08C54.064 107.464 55.12 107.8 55.12 108.088C55.12 108.568 54.4 108.808 52.96 108.808C51.52 108.808 48.928 108.184 45.184 106.936C31.456 121.336 19.072 128.536 8.032 128.536C3.232 128.536 0.832 126.904 0.832 123.64C0.832 121.72 1.216 120.472 1.984 119.896V121.336C1.984 124.888 4 126.664 8.032 126.664C17.92 126.664 28.768 119.56 40.576 105.352C38.368 104.392 36.688 103.528 35.536 102.76C26.416 114.184 18.448 119.896 11.632 119.896C10.768 119.896 10.336 119.608 10.336 119.032C10.336 118.552 10.624 118.216 11.2 118.024C11.68 117.928 12.976 117.688 15.088 117.304C21.04 115.48 27.424 110.344 34.24 101.896C29.536 98.44 27.184 94.552 27.184 90.232C27.184 85.912 30.448 81.736 36.976 77.704C41.68 74.728 47.008 72.472 52.96 70.936C62.464 50.104 67.6 30.472 68.368 12.04C66.928 11.464 65.2 11.176 63.184 11.176C56.272 11.176 49.024 14.056 41.44 19.816C33.856 25.576 30.064 31.576 30.064 37.816C30.064 43.96 34.192 49.144 42.448 53.368C42.736 53.464 42.88 53.8 42.88 54.376C42.88 54.952 42.544 55.24 41.872 55.24H41.296C37.072 53.512 33.232 51.016 29.776 47.752C26.416 44.488 24.736 40.888 24.736 36.952C24.736 31.48 27.76 26.296 33.808 21.4C38.608 17.272 43.648 14.344 48.928 12.616C54.304 10.888 59.344 10.024 64.048 10.024C65.2 10.024 66.64 10.12 68.368 10.312V5.41599C68.368 4.64799 68.656 4.26399 69.232 4.26399C69.616 4.26399 69.856 6.37599 69.952 10.6C79.744 12.616 84.64 19.24 84.64 30.472C84.64 39.88 80.704 52.264 72.832 67.624ZM117.616 121.768C106.768 121.768 101.344 115.576 101.344 103.192C101.344 95.032 103.792 84.04 108.688 70.216L125.968 28.312L131.872 13.48C132.736 11.272 133.456 10.168 134.032 10.168C134.704 10.168 135.04 10.6 135.04 11.464C135.04 13.096 132.544 21.064 127.552 35.368C122.656 49.672 119.008 60.856 116.608 68.92C112.576 83.32 110.56 94.648 110.56 102.904C110.56 114.136 113.968 119.752 120.784 119.752C123.568 119.752 126.496 118.696 129.568 116.584C132.352 114.568 137.248 110.296 144.256 103.768L144.544 103.912C144.544 104.104 144.4 104.44 144.112 104.92C140.944 109.528 136.912 113.464 132.016 116.728C127.216 120.088 122.416 121.768 117.616 121.768ZM77.152 27.304C77.152 19.912 74.752 15.064 69.952 12.76C69.76 29.56 64.72 48.808 54.832 70.504C58.576 69.544 61.696 68.92 64.192 68.632C72.832 50.872 77.152 37.096 77.152 27.304ZM61.888 72.808C56.512 74.44 53.248 75.496 52.096 75.976C47.392 85.576 42.352 93.928 36.976 101.032C38.224 102.28 39.808 103.24 41.728 103.912C49.024 94.984 55.744 84.616 61.888 72.808ZM32.944 93.4C32.944 95.704 33.904 97.912 35.824 100.024C40.528 93.784 45.28 86.056 50.08 76.84C38.656 82.024 32.944 87.544 32.944 93.4ZM183.867 74.536L187.611 74.392H188.331C189.003 74.392 189.339 74.536 189.339 74.824C189.339 75.784 188.475 76.312 186.747 76.408C172.923 77.368 164.763 78.04 162.267 78.424C150.747 92.824 139.563 104.056 128.715 112.12C131.307 113.368 135.579 114.52 141.531 115.576C142.395 115.672 142.827 115.96 142.827 116.44C142.827 116.92 142.347 117.16 141.387 117.16C137.547 117.16 132.843 115.864 127.275 113.272C117.867 119.992 109.707 123.352 102.795 123.352C98.3792 123.352 96.1712 121.96 96.1712 119.176C96.1712 117.16 96.7472 115.72 97.8992 114.856C97.6112 115.72 97.4672 116.632 97.4672 117.592C97.4672 120.184 99.2912 121.48 102.939 121.48C109.275 121.48 116.571 118.36 124.827 112.12C123.867 111.64 122.379 110.728 120.363 109.384C113.835 114.088 108.651 116.44 104.811 116.44C104.139 116.44 103.803 116.248 103.803 115.864C103.803 115.192 104.283 114.808 105.243 114.712C110.043 113.08 114.507 110.776 118.635 107.8C115.755 105.016 114.315 102.136 114.315 99.16C114.315 93.688 118.683 88.744 127.419 84.328C133.179 81.352 139.947 79.096 147.723 77.56C161.067 59.992 171.291 41.944 178.395 23.416C178.779 22.552 180.411 17.368 183.291 7.864C183.387 7.19199 183.771 6.85599 184.443 6.85599C184.539 6.952 184.587 7.048 184.587 7.144C184.587 14.824 180.267 26.872 171.627 43.288C165.291 55.48 158.427 66.712 151.035 76.984L157.947 76.264C164.283 67.624 171.243 56.152 178.827 41.848C186.507 27.544 190.347 16.84 190.347 9.736C190.347 5.32 188.379 2.824 184.443 2.24799C183.579 2.05599 183.147 1.72 183.147 1.24C183.147 0.759997 183.675 0.519998 184.731 0.519998C188.187 0.519998 190.923 1.624 192.939 3.832C194.859 6.232 195.819 9.16 195.819 12.616C195.819 20.392 192.027 31.288 184.443 45.304C179.067 55 172.395 65.128 164.427 75.688C172.875 74.92 179.355 74.536 183.867 74.536ZM226.059 100.744C226.059 102.28 225.003 104.44 222.891 107.224C220.779 110.104 218.811 112.024 216.987 112.984C215.163 114.04 212.907 114.568 210.219 114.568C207.531 114.568 204.363 113.08 200.715 110.104C197.067 107.224 194.331 103.816 192.507 99.88C190.779 96.04 189.915 90.52 189.915 83.32C189.915 76.024 190.635 66.28 192.075 54.088C193.515 41.8 194.331 34.216 194.523 31.336C194.715 28.36 195.099 26.872 195.675 26.872C196.539 26.872 197.019 27.88 197.115 29.896V52.792C197.115 78.136 199.179 95.416 203.307 104.632C205.803 110.296 208.683 113.128 211.947 113.128C216.267 113.128 220.971 109 226.059 100.744ZM155.499 79.432C153.291 79.912 150.699 80.584 147.723 81.448C139.371 92.2 130.971 100.936 122.523 107.656C123.387 108.808 124.683 109.912 126.411 110.968C135.243 103.96 144.939 93.448 155.499 79.432ZM143.979 82.6C128.427 88.744 120.651 95.272 120.651 102.184C120.651 103.336 120.891 104.536 121.371 105.784C128.667 99.928 136.203 92.2 143.979 82.6Z" fill="url(#paint0_linear)"/>
<defs>
<linearGradient id="paint0_linear" x1="127.5" y1="-18" x2="127.5" y2="141" gradientUnits="userSpaceOnUse">
<stop stop-color="#FF0101"/>
<stop offset="1" stop-color="white" stop-opacity="0"/>
</linearGradient>
</defs>
</svg>
