<svg width="267" height="267" viewBox="0 0 267 267" fill="none" xmlns="http://www.w3.org/2000/svg">
<path d="M53.3999 213.6V186.9H26.6999V213.6H13.3499V146.85H26.6999V173.55H53.3999V146.85H66.7499V213.6H53.3999Z" fill="#4CAF50"/>
<path d="M93.4512 213.6V160.2H74.7612V146.85H124.156V160.2H106.801V213.6H93.4512Z" fill="#4CAF50"/>
<path d="M133.5 213.6V146.85H146.85L165.54 192.24H166.875L186.9 146.85H200.25V213.6H186.9V172.215H185.565L170.88 205.59H162.87L148.185 172.215H146.85V213.6H133.5Z" fill="#4CAF50"/>
<path d="M253.65 213.6H213.6V146.85H226.95V200.25H253.65V213.6Z" fill="#4CAF50"/>
<path d="M125.491 56.0699L94.7856 86.7749L125.491 117.48L117.481 133.5L70.7556 86.7749L117.481 40.0499L125.491 56.0699ZM141.511 117.48L172.216 86.7749L141.511 56.0699L149.521 40.0499L196.246 86.7749L149.521 133.5L141.511 117.48V117.48Z" fill="#4CAF50"/>
</svg>
