<svg width="235" height="318" viewBox="0 0 235 318" fill="none" xmlns="http://www.w3.org/2000/svg">
<path d="M75.7817 245.828C75.7817 245.828 63.6664 252.882 84.4042 255.268C109.528 258.138 122.368 257.727 150.055 252.48C150.055 252.48 157.334 257.05 167.499 261.008C105.434 287.64 27.0321 259.465 75.7817 245.828" fill="#5382A1"/>
<path d="M68.1976 211.074C68.1976 211.074 54.609 221.145 75.3624 223.294C102.2 226.066 123.394 226.293 160.069 219.222C160.069 219.222 165.142 224.371 173.118 227.187C98.0766 249.157 14.4946 228.92 68.1976 211.074" fill="#5382A1"/>
<path d="M132.134 152.121C147.427 169.749 128.116 185.612 128.116 185.612C128.116 185.612 166.947 165.542 149.114 140.409C132.458 116.973 119.684 105.326 188.832 65.1753C188.832 65.1753 80.2935 92.3156 132.134 152.12" fill="#E76F00"/>
<path d="M214.221 271.533C214.221 271.533 223.186 278.929 204.346 284.651C168.521 295.518 55.2385 298.799 23.7687 285.084C12.4566 280.158 33.6708 273.32 40.3435 271.884C47.3026 270.374 51.2802 270.656 51.2802 270.656C38.6994 261.782 -30.0362 288.079 16.3662 295.609C142.911 316.155 247.044 286.357 214.221 271.533Z" fill="#5382A1"/>
<path d="M81.6075 175.065C81.6075 175.065 23.9857 188.769 61.2029 193.744C76.9167 195.85 108.242 195.374 137.422 192.926C161.269 190.913 185.214 186.63 185.214 186.63C185.214 186.63 176.806 190.236 170.722 194.395C112.207 209.803 -0.833395 202.635 31.7095 186.874C59.2311 173.554 81.6085 175.065 81.6085 175.065" fill="#5382A1"/>
<path d="M184.976 232.914C244.461 201.967 216.958 172.227 197.761 176.235C193.055 177.214 190.958 178.063 190.958 178.063C190.958 178.063 192.705 175.325 196.041 174.139C234.017 160.771 263.224 213.565 183.781 234.474C183.781 234.474 184.702 233.651 184.976 232.914" fill="#5382A1"/>
<path d="M149.114 0.340976C149.114 0.340976 182.057 33.3358 117.869 84.0696C66.3976 124.768 106.132 147.973 117.848 174.485C87.8028 147.345 65.7532 123.453 80.5462 101.217C102.257 68.574 162.405 52.7485 149.114 0.340057" fill="#E76F00"/>
<path d="M87.4534 316.773C144.55 320.433 232.228 314.743 234.305 287.693C234.305 287.693 230.313 297.949 187.117 306.092C138.384 315.273 78.2792 314.201 42.6299 308.317C42.6308 308.317 49.9277 314.364 87.4543 316.773" fill="#5382A1"/>
</svg>
