<svg width="394" height="394" viewBox="0 0 394 394" fill="none" xmlns="http://www.w3.org/2000/svg">
<path d="M196.926 36.9375C192.432 36.9375 187.938 38.0456 184.06 40.2619L62.055 110.689C54.175 115.245 49.25 123.864 49.25 132.975V260.779C49.25 270.013 54.175 278.509 62.055 283.064L94.0675 301.533C109.581 309.167 115.122 309.167 122.14 309.167C145.164 309.167 158.339 295.254 158.339 271.121V139.254C158.339 138.307 157.963 137.399 157.293 136.73C156.623 136.06 155.715 135.684 154.768 135.684H139.377C138.907 135.677 138.439 135.765 138.003 135.942C137.567 136.119 137.171 136.382 136.838 136.715C136.505 137.048 136.242 137.444 136.065 137.88C135.888 138.316 135.8 138.784 135.807 139.254V270.998C135.807 281.833 124.602 292.422 106.503 283.434L73.0131 264.103C72.4125 263.782 71.9114 263.302 71.5642 262.716C71.2169 262.13 71.0367 261.46 71.0431 260.779V133.098C71.0431 131.621 71.7819 130.389 73.0131 129.651L195.03 59.2231C195.601 58.862 196.263 58.6703 196.938 58.6703C197.614 58.6703 198.276 58.862 198.847 59.2231L320.864 129.651C322.095 130.389 322.834 131.621 322.834 132.975V260.779C322.834 262.133 322.095 263.488 320.987 264.103L198.847 334.654C198.256 334.956 197.602 335.114 196.938 335.114C196.275 335.114 195.621 334.956 195.03 334.654L163.633 316.062C163.211 315.752 162.712 315.565 162.19 315.521C161.669 315.478 161.145 315.58 160.678 315.816C151.936 320.741 150.336 321.356 142.209 324.188C140.239 324.804 137.161 326.035 143.318 329.483L184.072 353.615C188.012 355.831 192.444 357.062 196.877 357.062C201.432 357.062 205.865 355.831 209.805 353.615L331.945 283.064C339.825 278.509 344.75 270.013 344.75 260.779V133.098C344.75 123.864 339.825 115.368 331.945 110.812L209.805 40.2619C205.914 38.0456 201.433 36.9375 196.926 36.9375V36.9375ZM229.751 135.511C194.907 135.511 174.099 150.286 174.099 174.911C174.099 201.63 194.784 208.992 228.274 212.317C268.289 216.257 271.368 222.191 271.368 230.071C271.368 243.615 260.409 249.402 234.676 249.402C202.294 249.402 195.153 241.263 192.814 225.257C192.694 224.431 192.279 223.675 191.645 223.132C191.011 222.588 190.201 222.294 189.366 222.302H173.483C172.569 222.302 171.692 222.665 171.045 223.312C170.399 223.958 170.036 224.835 170.036 225.75C170.036 246.312 181.24 270.813 234.676 270.813C273.337 270.813 295.5 255.546 295.5 228.951C295.5 202.602 277.647 195.584 240.217 190.536C202.171 185.611 198.354 183.025 198.354 174.16C198.354 166.773 201.679 157.046 229.751 157.046C254.746 157.046 264.103 162.463 267.92 179.332C268.289 180.932 269.644 182.163 271.368 182.163H287.251C288.236 182.163 289.098 181.671 289.836 180.932C290.171 180.572 290.422 180.143 290.571 179.675C290.72 179.206 290.764 178.711 290.698 178.223C288.236 149.166 268.905 135.499 229.751 135.499V135.511Z" fill="#4CAF50"/>
</svg>
