<svg width="296" height="296" viewBox="0 0 296 296" fill="none" xmlns="http://www.w3.org/2000/svg">
<path d="M148 37C219.521 37 277.5 82.1893 277.5 137.948C277.5 193.695 219.521 238.884 148 238.884C140.878 238.888 133.764 238.435 126.7 237.528L72.335 273.085C66.156 276.353 63.973 275.995 66.5137 267.991L77.515 222.629C41.995 204.622 18.5 173.419 18.5 137.948C18.5 82.2017 76.479 37 148 37ZM220.853 136.407L238.983 118.844C240.029 117.758 240.613 116.307 240.611 114.799C240.609 113.291 240.022 111.842 238.973 110.758C237.924 109.674 236.496 109.04 234.989 108.988C233.481 108.937 232.013 109.472 230.892 110.482L207.114 133.496V114.478C207.114 112.934 206.5 111.453 205.409 110.362C204.317 109.27 202.836 108.657 201.292 108.657C199.748 108.657 198.268 109.27 197.176 110.362C196.084 111.453 195.471 112.934 195.471 114.478V146.014C195.253 146.914 195.253 147.853 195.471 148.752V166.5C195.471 168.044 196.084 169.525 197.176 170.616C198.268 171.708 199.748 172.321 201.292 172.321C202.836 172.321 204.317 171.708 205.409 170.616C206.5 169.525 207.114 168.044 207.114 166.5V149.69L212.38 144.596L229.992 169.67C230.432 170.296 230.99 170.829 231.636 171.239C232.282 171.649 233.002 171.928 233.756 172.06C234.509 172.191 235.282 172.173 236.028 172.007C236.775 171.84 237.481 171.528 238.107 171.088C238.733 170.648 239.267 170.09 239.677 169.444C240.087 168.798 240.366 168.078 240.497 167.324C240.629 166.57 240.611 165.798 240.444 165.052C240.278 164.305 239.965 163.599 239.526 162.973L220.853 136.394V136.407ZM184.371 160.136H166.364V114.663C166.295 113.167 165.653 111.755 164.57 110.721C163.487 109.687 162.047 109.11 160.549 109.11C159.052 109.11 157.612 109.687 156.529 110.721C155.446 111.755 154.803 113.167 154.734 114.663V165.957C154.734 169.164 157.324 171.779 160.543 171.779H184.371C185.915 171.779 187.396 171.165 188.487 170.074C189.579 168.982 190.192 167.501 190.192 165.957C190.192 164.413 189.579 162.933 188.487 161.841C187.396 160.749 185.915 160.136 184.371 160.136V160.136ZM112.135 146.668L120.719 125.615L128.587 146.668H112.135V146.668ZM143.252 152.687L143.276 152.489C143.273 151.023 142.714 149.612 141.71 148.543L128.809 114.009C128.269 112.364 127.238 110.922 125.857 109.878C124.475 108.833 122.807 108.235 121.076 108.163C119.333 108.156 117.628 108.679 116.19 109.664C114.751 110.649 113.646 112.048 113.023 113.676L92.537 163.935C92.2479 164.642 92.101 165.4 92.1048 166.165C92.1085 166.929 92.2629 167.686 92.5589 168.391C92.855 169.095 93.2869 169.735 93.8302 170.273C94.3735 170.811 95.0174 171.237 95.7252 171.526C96.4329 171.815 97.1907 171.962 97.9553 171.958C98.7198 171.954 99.4761 171.8 100.181 171.504C100.886 171.208 101.526 170.776 102.064 170.233C102.602 169.689 103.027 169.045 103.316 168.338L107.386 158.311H132.916L136.604 168.177C136.855 168.915 137.251 169.595 137.769 170.176C138.287 170.758 138.917 171.229 139.621 171.563C140.325 171.897 141.088 172.086 141.866 172.12C142.645 172.153 143.422 172.03 144.151 171.757C144.881 171.485 145.549 171.069 146.115 170.534C146.681 169.999 147.134 169.355 147.447 168.642C147.76 167.928 147.926 167.16 147.936 166.381C147.947 165.602 147.801 164.829 147.507 164.107L143.252 152.687V152.687ZM102.28 114.725C102.28 113.183 101.669 111.704 100.58 110.613C99.4906 109.521 98.0131 108.907 96.4713 108.903H56.4497C54.9058 108.903 53.4251 109.517 52.3334 110.608C51.2416 111.7 50.6283 113.181 50.6283 114.725C50.6283 116.269 51.2416 117.749 52.3334 118.841C53.4251 119.933 54.9058 120.546 56.4497 120.546H70.7563V166.623C70.7563 168.167 71.3696 169.648 72.4614 170.74C73.5531 171.831 75.0338 172.445 76.5777 172.445C78.1216 172.445 79.6023 171.831 80.694 170.74C81.7857 169.648 82.399 168.167 82.399 166.623V120.546H96.459C98.0029 120.546 99.4836 119.933 100.575 118.841C101.667 117.749 102.28 116.269 102.28 114.725V114.725Z" fill="#EEAB37"/>
</svg>
