<svg width="380" height="416" viewBox="0 0 380 416" fill="none" xmlns="http://www.w3.org/2000/svg">
<g clip-path="url(#clip0)">
<path d="M103.701 369.146C103.712 374.257 105.72 379.262 109.488 383.52L127.937 404.393C131.089 407.961 135.363 410.887 140.381 412.912C145.398 414.936 151.003 415.995 156.696 415.995H223.315C229.008 415.995 234.612 414.936 239.63 412.912C244.647 410.887 248.922 407.961 252.074 404.393L270.523 383.52C274.289 379.261 276.302 374.262 276.31 369.146L276.353 337.987H103.647L103.701 369.146ZM0 142.987C0 179.038 17.7585 211.928 47.025 237.058C64.8591 252.374 92.7545 284.37 103.388 311.361C103.431 311.573 103.464 311.784 103.507 311.995H276.493C276.536 311.784 276.569 311.581 276.612 311.361C287.245 284.37 315.141 252.374 332.975 237.058C362.241 211.928 380 179.038 380 142.987C380 63.8576 294.619 -0.256729 189.406 -0.0129792C79.2818 0.238896 0 67.4001 0 142.987ZM190 77.987C142.381 77.987 103.636 107.148 103.636 142.987C103.636 150.17 95.9068 155.987 86.3636 155.987C76.8205 155.987 69.0909 150.17 69.0909 142.987C69.0909 92.807 123.327 51.987 190 51.987C199.543 51.987 207.273 57.8045 207.273 64.987C207.273 72.1695 199.543 77.987 190 77.987Z" fill="black"/>
</g>
<defs>
<clipPath id="clip0">
<rect width="380" height="416" fill="white"/>
</clipPath>
</defs>
</svg>
