<svg width="363" height="409" viewBox="0 0 363 409" fill="none" xmlns="http://www.w3.org/2000/svg">
<path d="M362.389 119.936C362.386 113.077 360.921 107.015 357.959 101.815C355.049 96.6981 350.692 92.4107 344.847 89.0209C296.601 61.1591 248.308 33.3827 200.077 5.49255C187.074 -2.02567 174.467 -1.75016 161.561 5.87598C142.357 17.2172 46.2116 72.3853 17.5615 89.0052C5.76263 95.8475 0.0212695 106.317 0.0184336 119.923C0 175.955 0.0184336 231.986 0 288.018C0 294.727 1.40521 300.671 4.23689 305.794C7.14798 311.064 11.5664 315.469 17.5459 318.936C46.1974 335.556 142.356 390.719 161.555 402.065C174.467 409.695 187.074 409.968 200.081 402.448C248.313 374.557 296.609 346.78 344.863 318.919C350.842 315.453 355.261 311.045 358.172 305.779C360.999 300.656 362.407 294.712 362.407 288.002C362.407 288.002 362.407 175.969 362.389 119.936Z" fill="#A179DC"/>
<path d="M181.758 203.422L4.23633 305.791C7.14742 311.061 11.5658 315.466 17.5454 318.933C46.1969 335.553 142.355 390.717 161.554 402.062C174.466 409.693 187.073 409.965 200.08 402.446C248.313 374.554 296.609 346.778 344.862 318.916C350.842 315.451 355.26 311.043 358.171 305.777L181.758 203.422" fill="#280068"/>
<path d="M362.39 119.933C362.387 113.073 360.922 107.012 357.96 101.812L181.759 203.423L358.173 305.776C361 300.653 362.406 294.709 362.409 287.999C362.409 287.999 362.409 175.966 362.39 119.933" fill="#390091"/>
<path d="M286.278 165.154V184.289H305.383V165.154H314.936V184.289H334.042V193.857H314.936V212.99H334.042V222.558H314.936V241.693H305.383V222.558H286.278V241.693H276.725V222.558H257.621V212.99H276.725V193.857H257.621V184.289H276.725V165.154H286.278ZM305.383 193.855H286.278V212.99H305.383V193.857V193.855Z" fill="white"/>
<path d="M182.148 69.0556C231.981 69.0556 275.489 96.1604 298.793 136.45L298.566 136.062L239.933 169.873C228.383 150.285 207.207 137.065 182.913 136.792L182.147 136.788C145.103 136.788 115.07 166.866 115.07 203.967C115.058 215.661 118.108 227.154 123.917 237.298C135.479 257.514 157.215 271.148 182.148 271.148C207.237 271.148 229.096 257.34 240.598 236.909L240.319 237.399L298.863 271.366C275.814 311.314 232.902 338.335 183.649 338.873L182.148 338.882C132.158 338.882 88.527 311.61 65.2808 271.107C53.9328 251.335 47.4399 228.412 47.4399 203.967C47.4399 129.458 107.749 69.0542 182.147 69.0542L182.148 69.0556Z" fill="white"/>
</svg>
