<svg width="512" height="151" viewBox="0 0 512 151" fill="none" xmlns="http://www.w3.org/2000/svg">
<path d="M391.383 77.757C397.823 77.757 403.051 80.507 407.065 86.007V78.798H412.045V118.264H407.065V111.501C402.555 116.901 397.403 119.602 391.605 119.602C385.808 119.602 380.903 117.546 376.889 113.433C372.925 109.271 370.943 104.341 370.943 98.643C370.943 92.895 372.95 87.99 376.963 83.926C380.977 79.814 385.783 77.757 391.383 77.757ZM301.497 77.757C307.938 77.757 313.166 80.507 317.179 86.007V78.798H322.159V118.264H317.179V111.501C312.67 116.901 307.517 119.602 301.719 119.602C295.922 119.602 291.017 117.546 287.003 113.433C283.039 109.271 281.057 104.341 281.057 98.643C281.057 92.895 283.064 87.99 287.077 83.926C291.091 79.814 295.897 77.757 301.497 77.757ZM434.469 64.9C442.05 64.9 447.599 65.47 451.118 66.61C454.685 67.7 457.758 69.459 460.334 71.887C462.911 74.265 464.893 77.189 466.28 80.657C467.667 84.126 468.361 88.189 468.361 92.847C468.361 97.454 467.271 101.815 465.091 105.927C462.961 109.991 460.037 113.063 456.321 115.144C452.654 117.224 447.351 118.265 440.415 118.265H423.395V64.9H434.469V64.9ZM361.348 78.799V118.265H356.219V78.798H361.348V78.799ZM221.626 64.899L243.328 108.676L264.882 64.9H265.7L273.356 118.265H268.079L262.876 80.063L243.997 118.265H242.659L223.558 79.765L218.355 118.265H213.227L220.808 64.9H221.626V64.899ZM344.36 77.757C345.995 77.757 347.63 78.203 349.266 79.095L346.59 83.406C345.847 82.96 345.079 82.737 344.286 82.737C342.75 82.737 341.288 83.53 339.901 85.116C338.563 86.701 337.572 88.758 336.928 91.285C336.284 93.762 335.962 98.295 335.962 104.885V118.265H330.759V78.797H335.962V84.52C337.349 82.191 338.687 80.482 339.975 79.392C341.313 78.302 342.775 77.756 344.36 77.756V77.757ZM490.044 64.9C495.643 64.9 499.879 66.04 502.754 68.32C505.677 70.549 507.138 73.77 507.138 77.981C507.152 80.26 506.535 82.4984 505.355 84.448C504.215 86.38 502.53 87.941 500.301 89.13C503.967 90.32 506.742 92.103 508.625 94.481C510.557 96.86 511.524 99.684 511.524 102.954C511.524 107.364 509.914 111.031 506.693 113.954C503.472 116.828 499.31 118.265 494.206 118.265H479.49V64.9H490.044ZM391.68 82.663C387.32 82.663 383.628 84.273 380.605 87.494C377.583 90.665 376.072 94.431 376.072 98.791C376.072 103.151 377.608 106.942 380.68 110.163C383.752 113.334 387.418 114.92 391.68 114.92C395.99 114.92 399.682 113.384 402.754 110.312C405.826 107.24 407.362 103.375 407.362 98.717C407.362 94.208 405.851 90.417 402.828 87.345C399.806 84.224 396.09 82.663 391.68 82.663ZM301.794 82.663C297.434 82.663 293.742 84.273 290.72 87.494C287.697 90.665 286.186 94.431 286.186 98.791C286.186 103.151 287.722 106.942 290.794 110.163C293.866 113.334 297.533 114.92 301.794 114.92C306.104 114.92 309.796 113.384 312.868 110.312C315.94 107.24 317.477 103.375 317.477 98.717C317.477 94.208 315.965 90.417 312.943 87.345C309.92 84.224 306.204 82.663 301.794 82.663ZM432.314 70.102H428.523V113.21H434.692C441.133 113.21 445.791 112.888 448.665 112.244C451.588 111.6 454.14 110.336 456.32 108.454C458.5 106.521 460.16 104.192 461.3 101.467C462.44 98.742 463.01 95.62 463.01 92.102C463.01 88.584 462.34 85.339 461.003 82.366C459.715 79.393 457.856 76.94 455.429 75.007C453.001 73.075 450.127 71.787 446.807 71.143C443.537 70.449 438.705 70.102 432.314 70.102V70.102ZM487.74 92.548H484.767V113.062H491.382C495.197 113.062 497.997 112.69 499.78 111.947C501.614 111.154 503.1 109.965 504.24 108.379C505.38 106.744 505.95 105.084 505.95 103.399C505.95 101.715 505.627 100.229 504.983 98.94C504.339 97.652 503.373 96.512 502.084 95.521C500.846 94.531 499.334 93.787 497.551 93.291C495.816 92.796 492.546 92.548 487.74 92.548ZM490.936 70.102H484.766V87.197H487.814C492.472 87.197 495.94 86.453 498.22 84.967C500.499 83.48 501.638 81.152 501.638 77.98C501.638 72.728 498.071 70.102 490.936 70.102ZM358.746 63.562C359.936 63.562 360.926 63.982 361.719 64.825C362.561 65.618 362.983 66.609 362.983 67.798C362.983 68.938 362.561 69.928 361.719 70.771C360.926 71.564 359.935 71.961 358.746 71.961C357.606 71.961 356.616 71.539 355.773 70.697C354.98 69.854 354.584 68.888 354.584 67.797C354.584 66.658 354.98 65.667 355.774 64.825C356.616 63.983 357.607 63.561 358.746 63.561V63.562Z" fill="white"/>
<path d="M222.34 0.00395733C218.827 0.115957 219.939 1.12896 212.347 2.99696C204.681 4.88296 195.317 4.30496 187.062 7.76696C162.419 18.102 157.474 53.425 135.072 66.078C118.326 75.537 101.432 76.291 86.242 81.051C76.26 84.181 65.34 90.601 56.296 98.394C49.276 104.446 49.093 109.767 41.758 117.357C33.912 125.476 10.576 117.494 0 129.92C3.407 133.365 4.9 134.33 11.615 133.436C10.225 136.071 2.031 138.291 3.635 142.166C5.322 146.246 25.132 149.01 43.141 138.137C51.527 133.074 58.207 125.776 71.269 124.034C88.171 121.781 107.643 125.479 127.209 128.3C124.309 136.951 118.483 142.704 113.817 149.594C112.372 151.15 116.72 151.324 121.679 150.384C130.6 148.178 137.029 146.402 143.763 142.483C152.035 137.668 153.288 125.323 163.437 122.651C169.092 131.342 184.471 133.395 194.015 126.443C185.641 124.073 183.326 106.249 186.153 98.394C188.831 90.959 191.476 79.066 194.173 69.239C197.068 58.684 198.136 45.38 201.64 40.004C206.91 31.915 212.735 29.137 217.792 24.576C222.849 20.015 227.477 15.575 227.325 5.13696C227.277 1.77596 225.538 -0.0980427 222.341 0.00395733H222.34Z" fill="#002B64"/>
<path d="M215.447 6.20605C216.292 9.08505 217.613 10.4061 223.324 10.9341C222.49 18.1751 217.659 22.1361 212.244 25.9361C207.478 29.2791 202.256 32.4971 198.901 37.7191C195.464 43.0671 193.281 61.3731 187.952 79.451C183.345 95.071 176.388 110.516 164.239 117.283C162.97 114.089 164.401 108.193 161.877 106.255C160.243 110.913 158.397 115.358 156.233 119.489C149.105 133.115 138.55 143.317 120.912 146.432C129.281 135.107 137.283 123.412 137.456 103.893C131.566 105.167 131.691 119.08 125.64 122.799C121.76 123.221 117.83 123.219 113.874 122.981C97.6291 122.008 80.9641 117.125 65.7671 122.001C55.4201 125.322 46.9571 133.157 38.1951 136.957C27.8971 141.423 20.0981 143.26 7.27508 141.423C5.64508 139.23 16.6601 136.399 16.0011 131.637C10.9821 131.082 8.06808 132.298 3.70508 130.316C4.18708 129.429 4.89508 128.689 5.78608 128.073C13.7821 122.539 36.4951 126.766 42.5731 120.798C46.3251 117.117 48.7871 113.263 51.3351 109.518C53.8071 105.883 56.3621 102.349 60.2551 99.1651C61.6921 97.9891 63.2551 96.8271 64.9131 95.6931C71.5461 91.1531 79.7521 87.0361 87.8281 84.1981C98.8281 80.3311 109.976 80.0121 121.702 75.5321C128.946 72.7631 136.822 69.3441 143.244 64.5591C144.756 63.4378 146.192 62.2185 147.544 60.9091C165.879 43.0361 169.514 11.5081 198.119 8.57005C201.578 8.21505 204.409 8.33006 206.987 8.25106C209.957 8.16306 212.587 7.81805 215.447 6.20605V6.20605ZM180.575 107.113C180.917 112.577 184.088 123.417 186.889 126.052C181.405 127.386 171.957 125.182 169.534 121.314C170.779 115.728 177.259 110.622 180.575 107.113Z" fill="#C49A6C"/>
<path d="M216.84 12.225C215.763 14.485 213.701 17.397 213.701 23.148C213.692 24.135 212.951 24.811 212.939 23.289C212.994 17.669 214.482 15.239 216.063 12.046C216.797 10.737 217.24 11.276 216.84 12.225V12.225ZM215.755 11.375C214.485 13.53 211.425 17.461 210.92 23.191C210.826 24.173 210.027 24.781 210.149 23.263C210.699 17.67 213.145 14.169 215.001 11.126C215.843 9.88896 216.238 10.466 215.755 11.374V11.375ZM214.767 10.247C213.319 12.287 208.61 17.009 207.625 22.677C207.448 23.646 206.601 24.187 206.85 22.684C207.87 17.155 211.929 12.81 214.034 9.93696C214.977 8.77296 215.322 9.38096 214.767 10.247V10.247ZM213.884 8.98896L213.408 9.49496C211.303 11.753 206.411 17.259 204.781 22.298C204.467 23.234 203.553 23.651 204.012 22.197C205.797 16.867 210.714 11.127 213.202 8.57696C214.3 7.55696 214.556 8.20896 213.884 8.98896V8.98896ZM188.609 20.399C189.7 15.713 193.345 13.578 199.637 14.099C201.155 21.093 192.658 23.915 188.609 20.399Z" fill="#002B64"/>
</svg>
