<svg width="348" height="348" viewBox="0 0 348 348" fill="none" xmlns="http://www.w3.org/2000/svg">
<g clip-path="url(#clip0)">
<path d="M303.412 65.25H196.838L175.088 108.75H54.375V293.625H326.25V65.25H303.412ZM304.5 108.75H219.675L230.55 87H304.5V108.75Z" fill="#5582BF"/>
<path d="M342.03 167.474C337.832 167.604 339.159 168.822 330.067 171.052C319.844 172.105 309.728 174.015 299.824 176.761C270.353 189.126 264.437 231.365 237.652 246.503C217.62 257.813 197.414 258.715 179.253 264.414C166.078 268.927 153.913 275.972 143.442 285.152C135.046 292.395 134.829 298.757 126.042 307.827C116.656 317.538 88.7511 307.99 76.1035 322.856C80.1816 326.978 81.9651 328.13 89.9909 327.065C88.327 330.218 78.5286 332.872 80.4426 337.505C82.4654 342.377 106.151 345.693 127.695 332.687C137.379 324.43 148.921 318.642 161.331 315.82C183.759 314.612 206.248 316.326 228.234 320.92C224.154 330.14 218.758 338.719 212.215 346.389C210.486 348.249 215.684 348.456 221.622 347.336C230.852 345.53 239.757 342.344 248.037 337.885C257.934 332.121 259.434 317.364 271.571 314.167C275.984 319.377 282.195 322.736 288.971 323.576C295.748 324.416 302.592 322.676 308.143 318.702C298.127 315.863 295.365 294.548 298.737 285.152C301.934 276.257 305.098 262.032 308.328 250.287C310.198 238.378 313.187 226.671 317.257 215.324C322.649 208.154 329.172 201.91 336.571 196.836C340.262 194.225 343.241 190.731 345.237 186.674C347.233 182.617 348.183 178.125 348 173.607C347.946 169.584 345.825 167.343 342.041 167.463L342.03 167.474Z" fill="#002B64"/>
<path d="M84.827 336.604C97.4065 338.779 110.352 336.909 121.802 331.264C132.448 324.686 143.457 318.714 154.775 313.375C172.947 307.546 192.837 313.375 212.304 314.549C216.992 314.872 221.7 314.799 226.376 314.332C233.619 309.884 233.466 293.245 240.513 291.722C240.069 310.456 233.082 328.442 220.764 342.563C229.902 341.053 238.531 337.327 245.894 331.709C253.258 326.092 259.132 318.755 263.003 310.34C265.633 305.236 267.89 299.948 269.756 294.517C272.78 296.834 271.061 303.892 272.584 307.709C287.113 299.618 295.421 281.141 300.946 262.458C307.319 240.838 309.929 218.958 313.996 212.552C318.33 206.835 323.752 202.03 329.949 198.415C333.371 196.632 336.342 194.095 338.64 190.996C340.939 187.897 342.503 184.317 343.217 180.526C336.387 179.895 334.811 178.351 333.799 174.871C330.697 176.548 327.212 177.391 323.685 177.317C320.608 177.415 317.215 177.317 313.082 177.698C278.87 181.211 274.53 218.914 252.596 240.295C250.978 241.855 249.26 243.309 247.452 244.645C239.492 250.157 230.827 254.572 221.689 257.771C207.671 263.132 194.338 263.513 181.179 268.135C171.5 271.539 162.291 276.158 153.774 281.881C151.86 283.185 150.002 284.571 148.206 286.035C144.049 289.601 140.453 293.773 137.538 298.411C134.522 303.261 131.008 307.784 127.055 311.906C119.79 319.04 92.6243 313.984 83.0543 320.606C82.0227 321.291 81.169 322.212 80.564 323.293C85.784 325.663 89.264 324.206 95.267 324.869C96.05 330.568 82.8803 333.95 84.827 336.571V336.604Z" fill="#C49A6C"/>
<path d="M301.696 191.868C302.959 192.949 304.526 193.613 306.181 193.769C307.837 193.926 309.5 193.567 310.944 192.743C312.388 191.918 313.541 190.667 314.247 189.161C314.953 187.656 315.177 185.969 314.887 184.332C307.362 183.701 303.001 186.256 301.696 191.868Z" fill="#002B64"/>
<path d="M335.45 182.091C333.028 186.015 331.731 190.53 331.698 195.141C331.698 196.326 330.807 197.131 330.785 195.315C330.767 190.572 332.062 185.916 334.526 181.863C335.407 180.307 335.929 180.949 335.45 182.091V182.091Z" fill="#002B64"/>
<path d="M334.157 181.069C331.08 185.225 329.092 190.085 328.371 195.206C328.263 196.381 327.284 197.109 327.447 195.293C328.14 190.045 330.136 185.053 333.254 180.775C334.266 179.296 334.733 179.981 334.157 181.069V181.069Z" fill="#002B64"/>
<path d="M332.969 179.719C328.992 183.932 326.066 189.026 324.432 194.585C324.226 195.749 323.203 196.391 323.508 194.585C325.154 188.914 328.095 183.702 332.099 179.36C333.23 177.957 333.643 178.686 332.969 179.719V179.719Z" fill="#002B64"/>
<path d="M331.916 178.218C327.306 182.781 323.615 188.186 321.041 194.139C320.671 195.227 319.573 195.76 320.117 194.02C322.675 187.913 326.411 182.37 331.111 177.707C332.427 176.489 332.732 177.261 331.927 178.197L331.916 178.218Z" fill="#002B64"/>
</g>
<defs>
<clipPath id="clip0">
<rect width="348" height="348" fill="white"/>
</clipPath>
</defs>
</svg>
