<svg width="1024" height="1024" viewBox="0 0 1024 1024" fill="none" xmlns="http://www.w3.org/2000/svg">
<g clip-path="url(#clip0)">
<rect width="1024" height="1024" fill="url(#paint0_radial)"/>
<g filter="url(#filter0_f)">
<rect x="130" y="278" width="765" height="471" rx="16" fill="#092B83"/>
</g>
<rect x="206" y="-351" width="613" height="480" rx="120" fill="#DEE8FF"/>
<rect x="206" y="895" width="613" height="480" rx="120" fill="#DEE8FF"/>
<rect x="130" y="213" width="764" height="598" rx="120" fill="white"/>
<path d="M291.564 337.964C291.564 323.525 298.959 316.305 313.75 316.305H356.581C371.577 316.305 379.075 323.525 379.075 337.964V368.47C379.075 383.52 371.577 391.045 356.581 391.045H350.418C347.748 393.282 346.412 396.841 346.412 401.722V405.993C346.412 417.382 352.061 423.076 363.36 423.076H384.313C393.146 423.076 397.563 425.517 397.563 430.398C397.563 435.075 393.044 437.414 384.005 437.414H286.634C278.211 437.414 274 434.974 274 430.093C274 425.415 278.211 423.076 286.634 423.076H308.203C319.296 423.076 324.843 417.382 324.843 405.993V401.722C324.843 396.841 323.405 393.282 320.529 391.045H313.75C298.959 391.045 291.564 383.622 291.564 368.775V337.964ZM313.75 347.421V359.929C313.75 371.318 319.502 377.012 331.005 377.012H339.941C351.24 377.012 356.889 371.318 356.889 359.929V347.421C356.889 335.626 351.24 329.728 339.941 329.728H331.005C319.502 329.728 313.75 335.626 313.75 347.421Z" fill="#424242"/>
<path d="M447.137 338.269C447.137 323.423 454.738 316 469.939 316H521.706C530.334 316 534.648 318.237 534.648 322.711C534.648 327.186 530.231 329.423 521.398 329.423H489.352C476.616 329.423 470.247 336.947 470.247 351.997V357.183C470.247 370.402 476.616 377.012 489.352 377.012H521.398C530.231 377.012 534.648 379.249 534.648 383.723C534.648 388.401 530.334 390.74 521.706 390.74H469.939C454.738 390.74 447.137 383.113 447.137 367.86V338.269ZM429.573 429.788C429.573 425.313 434.093 423.076 443.131 423.076H540.195C548.822 423.076 553.136 425.415 553.136 430.093C553.136 434.974 548.822 437.414 540.195 437.414H518.317C507.84 437.414 502.602 443.515 502.602 455.718V463.039C502.602 475.038 498.904 481.038 491.509 481.038C483.497 481.038 479.492 475.038 479.492 463.039V455.718C479.492 443.515 474.561 437.414 464.701 437.414H443.439C434.195 437.414 429.573 434.872 429.573 429.788Z" fill="#424242"/>
<path d="M647.698 316.326C653.245 316.326 658.689 317.547 664.03 319.987C669.371 322.224 673.993 325.377 677.896 329.444C682.004 333.308 685.291 337.884 687.756 343.172C690.427 348.459 691.762 354.052 691.762 359.95C691.762 366.051 690.427 371.746 687.756 377.033C685.291 382.321 682.004 386.897 677.896 390.761C673.993 394.422 669.371 397.472 664.03 399.913C658.689 402.15 653.245 403.269 647.698 403.269C641.536 403.269 635.784 402.15 630.443 399.913C625.307 397.472 620.685 394.32 616.577 390.456C612.673 386.592 609.592 382.016 607.332 376.728C605.073 371.441 603.943 365.848 603.943 359.95C603.943 354.459 605.073 349.07 607.332 343.782C609.797 338.494 612.982 333.817 616.885 329.749C620.993 325.682 625.615 322.428 630.751 319.987C636.092 317.547 641.741 316.326 647.698 316.326ZM672.658 359.95C672.658 356.696 671.939 353.645 670.501 350.798C669.063 347.951 667.214 345.409 664.954 343.172C662.694 340.935 660.024 339.206 656.943 337.986C654.067 336.562 650.985 335.85 647.698 335.85C643.59 335.85 639.995 336.664 636.914 338.291C633.832 339.714 631.264 341.646 629.21 344.087C627.361 346.324 625.821 348.866 624.588 351.713C623.561 354.357 623.047 357.103 623.047 359.95C623.047 366.661 625.307 372.458 629.826 377.338C634.551 382.016 640.509 384.355 647.698 384.355C650.369 384.355 653.142 383.846 656.018 382.83C659.099 381.609 661.873 379.982 664.338 377.949C666.803 375.711 668.754 373.169 670.192 370.322C671.836 367.271 672.658 363.814 672.658 359.95ZM750 360.56V463.976C750 476.178 746.2 482.279 738.599 482.279C730.382 482.279 726.273 476.178 726.273 463.976V360.56C726.273 348.561 730.279 342.562 738.291 342.562C746.097 342.562 750 348.561 750 360.56ZM608.565 433.165H694.535C703.779 433.165 708.401 435.605 708.401 440.486C708.401 444.96 703.779 447.197 694.535 447.197H608.565C599.732 447.197 595.315 444.96 595.315 440.486C595.315 435.605 599.732 433.165 608.565 433.165Z" fill="#424242"/>
<path d="M389.848 564.455C389.848 567.506 390.259 570.251 391.081 572.691C392.108 575.132 393.854 577.471 396.319 579.708L409.877 593.741C412.137 596.385 413.883 598.622 415.116 600.452C416.554 602.282 417.17 604.011 416.965 605.638C416.965 607.468 416.246 609.197 414.808 610.824C413.37 612.451 411.829 613.264 410.186 613.264C407.926 613.264 405.563 612.451 403.098 610.824C400.633 609.197 397.86 606.96 394.779 604.113L387.383 597.096C383.891 594.046 380.502 592.52 377.215 592.52C375.161 592.317 373.209 592.724 371.36 593.741C369.717 594.554 368.073 595.774 366.43 597.401L357.802 604.723C351.845 611.027 346.812 614.18 342.703 614.18C341.06 614.18 339.314 613.366 337.465 611.739C335.822 609.909 335 608.078 335 606.248C334.795 604.621 335.411 602.892 336.849 601.062C338.287 599.028 340.136 596.69 342.395 594.046L357.494 578.793C362.013 574.318 364.273 569.336 364.273 563.845V546.761C364.273 534.559 368.484 528.458 376.907 528.458C385.535 528.458 389.848 534.559 389.848 546.761V564.455ZM449.319 588.555C449.319 578.386 444.902 573.302 436.069 573.302H430.523C420.457 573.302 415.424 570.658 415.424 565.37C415.424 560.082 420.149 557.438 429.598 557.438H435.145C437.815 557.438 440.794 556.32 444.081 554.083C447.367 551.642 449.011 548.897 449.011 545.846V524.492C449.011 514.933 452.195 510.154 458.563 510.154C465.548 510.154 469.04 516.255 469.04 528.458V608.384C469.04 620.789 465.65 626.992 458.871 626.992C452.503 626.992 449.319 620.586 449.319 607.773V588.555ZM492.458 528.458C492.458 516.255 496.053 510.154 503.243 510.154C510.638 510.154 514.336 516.255 514.336 528.458V608.384C514.336 620.789 510.536 626.992 502.935 626.992C495.95 626.992 492.458 620.789 492.458 608.384V528.458ZM448.086 646.821C448.086 642.347 452.914 640.11 462.569 640.11H508.789C522.348 640.11 529.127 646.821 529.127 660.244V674.887C529.127 689.733 522.039 697.156 507.865 697.156H486.912C476.024 697.156 470.58 702.139 470.58 712.104V714.85C470.58 724.205 476.024 728.882 486.912 728.882H514.644C524.299 728.882 529.127 731.221 529.127 735.899C529.127 739.966 524.402 742 514.952 742H468.423C454.455 742 447.47 734.679 447.47 720.036V706.918C447.47 691.868 454.455 684.344 468.423 684.344H489.993C500.881 684.344 506.324 679.768 506.324 670.616V667.87C506.324 658.108 500.881 653.227 489.993 653.227H463.185C453.119 653.227 448.086 651.092 448.086 646.821Z" fill="#424242"/>
<path d="M552.571 523.882C552.571 519.408 556.577 517.17 564.589 517.17H607.42C620.978 517.17 627.757 523.17 627.757 535.169V565.675C627.757 571.776 626.011 576.25 622.519 579.098C619.026 581.945 615.123 583.369 610.809 583.369H592.629C581.331 583.369 575.682 589.368 575.682 601.367V605.943C575.682 617.739 581.228 623.637 592.321 623.637H616.048C623.854 623.637 627.757 625.874 627.757 630.348C627.757 634.822 623.854 637.059 616.048 637.059H573.525C559.351 637.059 552.263 630.043 552.263 616.01V587.639C552.263 575.844 559.351 569.946 573.525 569.946H588.315C598.998 569.946 604.339 564.251 604.339 552.863V547.677C604.339 536.084 598.998 530.288 588.315 530.288H565.513C556.885 530.288 552.571 528.153 552.571 523.882ZM667.199 617.535C667.199 607.977 662.474 603.198 653.024 603.198H643.472C639.158 603.198 636.282 602.486 634.844 601.062C633.406 599.435 632.687 597.3 632.687 594.656C632.687 593.436 633.201 591.707 634.228 589.47C635.46 587.233 638.542 586.114 643.472 586.114H653.024C662.474 586.114 667.199 581.233 667.199 571.471V541.88C667.199 537.61 667.918 533.847 669.356 530.593C670.999 527.339 674.183 525.712 678.908 525.712C682.605 525.712 685.379 527.238 687.228 530.288C689.076 533.339 690.001 536.999 690.001 541.27V649.567C690.001 655.261 688.768 659.329 686.303 661.769C684.043 664.006 681.476 665.125 678.6 665.125C670.999 665.125 667.199 659.837 667.199 649.262V617.535Z" fill="#424242"/>
</g>
<defs>
<filter id="filter0_f" x="40" y="188" width="945" height="651" filterUnits="userSpaceOnUse" color-interpolation-filters="sRGB">
<feFlood flood-opacity="0" result="BackgroundImageFix"/>
<feBlend mode="normal" in="SourceGraphic" in2="BackgroundImageFix" result="shape"/>
<feGaussianBlur stdDeviation="45" result="effect1_foregroundBlur"/>
</filter>
<radialGradient id="paint0_radial" cx="0" cy="0" r="1" gradientUnits="userSpaceOnUse" gradientTransform="translate(512 512) rotate(90) scale(512)">
<stop stop-color="#6393FF"/>
<stop offset="0.854167" stop-color="#6E9DFD"/>
</radialGradient>
<clipPath id="clip0">
<rect width="1024" height="1024" fill="white"/>
</clipPath>
</defs>
</svg>
