<svg width="256" height="291" viewBox="0 0 256 291" fill="none" xmlns="http://www.w3.org/2000/svg">
<g clip-path="url(#clip0)">
<path d="M2.054 218.187C3.374 220.534 5.281 222.295 7.629 223.615L120.591 288.752C125.286 291.539 131.007 291.539 135.555 288.752L248.518 223.615C253.213 220.975 256 215.986 256 210.558V80.284C256 74.856 253.213 69.868 248.518 67.228L135.555 2.09002C130.861 -0.697977 125.139 -0.697977 120.591 2.09002L7.63 67.228C2.787 69.868 0 74.856 0 80.284V210.704C0 213.346 0.587 215.84 2.054 218.187Z" fill="#009639"/>
<path d="M91.8369 195.154C91.845 197.064 91.4748 198.956 90.7478 200.722C90.0207 202.487 88.9512 204.092 87.6009 205.442C86.2506 206.792 84.6463 207.862 82.8806 208.589C81.1148 209.316 79.2225 209.686 77.3129 209.678C75.4034 209.686 73.5113 209.316 71.7456 208.589C69.9799 207.861 68.3757 206.792 67.0256 205.442C65.6754 204.091 64.6059 202.487 63.879 200.721C63.152 198.956 62.7819 197.063 62.7899 195.154V95.542C62.7899 87.766 69.6849 81.458 79.2199 81.458C86.1159 81.458 94.1849 84.245 99.0259 90.26L103.426 95.542L164.163 168.16V95.835C164.155 93.9254 164.525 92.0331 165.252 90.2674C165.979 88.5016 167.049 86.8973 168.399 85.547C169.749 84.1967 171.354 83.1272 173.119 82.4001C174.885 81.6731 176.777 81.3029 178.687 81.311C180.596 81.303 182.489 81.6733 184.254 82.4004C186.02 83.1275 187.624 84.197 188.974 85.5473C190.324 86.8976 191.394 88.5019 192.121 90.2676C192.848 92.0333 193.218 93.9255 193.21 95.835V195.448C193.21 203.223 186.315 209.531 176.78 209.531C169.884 209.531 161.815 206.744 156.974 200.729L91.8369 122.975V195.155V195.154Z" fill="white"/>
</g>
<defs>
<clipPath id="clip0">
<rect width="256" height="291" fill="white"/>
</clipPath>
</defs>
</svg>
