<svg width="711" height="436" viewBox="0 0 711 436" fill="none" xmlns="http://www.w3.org/2000/svg">
<g clip-path="url(#clip0)">
<path d="M351.487 434.741C349.08 434.741 346.833 434.1 344.746 432.976L323.401 420.299C320.19 418.533 321.796 417.891 322.759 417.571C327.092 416.126 327.895 415.804 332.388 413.238C332.87 412.916 333.513 413.077 333.994 413.398L350.365 423.187C351.006 423.508 351.809 423.508 352.289 423.187L416.328 386.116C416.97 385.795 417.292 385.152 417.292 384.351V310.37C417.292 309.566 416.97 308.926 416.328 308.604L352.289 271.694C351.648 271.372 350.845 271.372 350.365 271.694L286.326 308.604C285.684 308.925 285.362 309.727 285.362 310.369V384.35C285.362 384.993 285.684 385.794 286.326 386.116L303.821 396.226C313.29 401.04 319.228 395.423 319.228 389.807V316.788C319.228 315.826 320.031 314.862 321.154 314.862H329.339C330.303 314.862 331.265 315.665 331.265 316.788V389.807C331.265 402.484 324.363 409.867 312.326 409.867C308.635 409.867 305.747 409.867 297.56 405.854L280.709 396.226C276.536 393.82 273.968 389.325 273.968 384.511V310.53C273.968 305.716 276.536 301.221 280.709 298.815L344.746 261.744C348.759 259.497 354.217 259.497 358.229 261.744L422.266 298.815C426.439 301.221 429.008 305.716 429.008 310.53V384.511C429.008 389.325 426.439 393.82 422.266 396.226L358.229 433.297C356.142 434.261 353.735 434.741 351.488 434.741H351.487ZM371.228 383.869C343.142 383.869 337.364 371.031 337.364 360.119C337.364 359.155 338.167 358.193 339.29 358.193H347.636C348.598 358.193 349.401 358.834 349.401 359.798C350.685 368.303 354.377 372.475 371.389 372.475C384.87 372.475 390.65 369.426 390.65 362.204C390.65 358.032 389.043 354.984 368.019 352.897C350.524 351.131 339.611 347.28 339.611 333.318C339.611 320.319 350.526 312.615 368.821 312.615C389.364 312.615 399.476 319.677 400.761 335.082C400.761 335.565 400.6 336.045 400.279 336.527C399.957 336.848 399.476 337.169 398.995 337.169H390.649C389.846 337.169 389.043 336.527 388.884 335.725C386.958 326.899 381.982 324.01 368.821 324.01C354.056 324.01 352.289 329.146 352.289 332.996C352.289 337.651 354.377 339.095 374.278 341.662C394.019 344.231 403.329 347.922 403.329 361.722C403.167 375.845 391.612 383.869 371.228 383.869Z" fill="#539E43"/>
<path d="M152.793 145.396C152.793 142.508 151.188 139.778 148.62 138.334L80.5694 99.177C79.4446 98.5341 78.1614 98.2133 76.8783 98.0522H76.2353C74.9522 98.0522 73.6677 98.5341 72.5442 99.177L4.49376 138.334C1.92472 139.778 0.320801 142.506 0.320801 145.396L0.481887 250.67C0.481887 252.114 1.28454 253.558 2.56767 254.201C3.85219 255.004 5.45611 255.004 6.58093 254.201L47.026 231.092C49.5937 229.648 51.199 226.919 51.199 224.031V174.763C51.199 171.875 52.8029 169.147 55.3719 167.703L72.5442 157.752C73.8288 156.95 75.273 156.628 76.7172 156.628C78.1614 156.628 79.6056 156.95 80.7305 157.752L97.9028 167.703C100.472 169.147 102.076 171.874 102.076 174.763V224.031C102.076 226.919 103.681 229.648 106.249 231.092L146.694 254.201C147.978 255.004 149.582 255.004 150.867 254.201C152.151 253.558 152.954 252.114 152.954 250.67L152.793 145.396Z" fill="#333333"/>
<path d="M479.885 0.481436C478.602 -0.161455 476.996 -0.161455 475.871 0.481436C474.588 1.28401 473.786 2.56702 473.786 4.01109V108.325C473.786 109.287 473.305 110.249 472.341 110.892C471.379 111.373 470.415 111.373 469.453 110.892L452.44 101.103C451.193 100.393 449.783 100.02 448.347 100.02C446.912 100.02 445.501 100.393 444.254 101.103L376.204 140.421C373.636 141.865 372.031 144.593 372.031 147.481V225.956C372.031 228.844 373.636 231.574 376.204 233.018L444.254 272.336C445.501 273.046 446.912 273.419 448.347 273.419C449.783 273.419 451.193 273.046 452.44 272.336L520.491 233.018C523.059 231.574 524.664 228.845 524.664 225.956V30.3308C524.664 27.2815 523.059 24.5545 520.491 23.109L479.886 0.481436H479.885ZM473.626 200.119C473.626 200.922 473.305 201.563 472.662 201.884L449.391 215.364C449.066 215.523 448.709 215.605 448.347 215.605C447.986 215.605 447.629 215.523 447.304 215.364L424.032 201.884C423.389 201.563 423.069 200.761 423.069 200.119V173.158C423.069 172.356 423.389 171.714 424.032 171.393L447.304 157.912C447.629 157.754 447.986 157.671 448.347 157.671C448.709 157.671 449.066 157.754 449.391 157.912L472.662 171.393C473.305 171.713 473.626 172.517 473.626 173.158V200.119Z" fill="#333333"/>
<path d="M706.345 172.517C708.914 171.073 710.358 168.344 710.358 165.455V146.358C710.358 143.47 708.753 140.741 706.345 139.297L638.777 100.141C637.53 99.4309 636.119 99.0576 634.684 99.0576C633.249 99.0576 631.839 99.4309 630.592 100.141L562.541 139.457C559.972 140.901 558.368 143.63 558.368 146.519V224.994C558.368 227.882 559.972 230.61 562.541 232.054L630.11 270.569C632.679 272.014 635.727 272.014 638.135 270.569L679.061 247.784C680.345 247.141 681.148 245.697 681.148 244.253C681.148 242.808 680.345 241.364 679.061 240.722L610.689 201.404C609.406 200.603 608.604 199.318 608.604 197.874V173.321C608.604 171.877 609.406 170.432 610.689 169.79L632.036 157.593C632.661 157.2 633.384 156.991 634.122 156.991C634.861 156.991 635.584 157.2 636.209 157.593L657.554 169.79C658.839 170.592 659.641 171.875 659.641 173.321V192.578C659.641 194.022 660.444 195.466 661.727 196.108C663.012 196.91 664.616 196.91 665.9 196.108L706.345 172.517V172.517Z" fill="#333333"/>
<path d="M633.641 168.826C633.879 168.669 634.158 168.585 634.443 168.585C634.728 168.585 635.007 168.669 635.245 168.826L648.246 176.368C648.728 176.688 649.049 177.169 649.049 177.812V192.897C649.049 193.539 648.728 194.021 648.246 194.342L635.245 201.884C635.007 202.041 634.728 202.124 634.443 202.124C634.158 202.124 633.879 202.041 633.641 201.884L620.641 194.342C620.159 194.021 619.838 193.539 619.838 192.897V177.812C619.838 177.169 620.159 176.688 620.641 176.368L633.641 168.826V168.826Z" fill="#539E43"/>
<mask id="mask0" mask-type="alpha" maskUnits="userSpaceOnUse" x="186" y="99" width="153" height="173">
<path d="M266.585 100.462C265.338 99.7517 263.927 99.3784 262.492 99.3784C261.057 99.3784 259.647 99.7517 258.4 100.462L190.831 139.456C188.262 140.9 186.818 143.628 186.818 146.516V224.672C186.818 227.56 188.423 230.288 190.831 231.732L258.4 270.729C259.647 271.439 261.057 271.812 262.492 271.812C263.927 271.812 265.338 271.439 266.585 270.729L334.155 231.732C336.722 230.288 338.168 227.56 338.168 224.672V146.518C338.168 143.63 336.561 140.901 334.155 139.457L266.585 100.462Z" fill="white"/>
</mask>
<g mask="url(#mask0)">
<path d="M266.585 100.462C265.338 99.7517 263.927 99.3784 262.492 99.3784C261.057 99.3784 259.647 99.7517 258.4 100.462L190.831 139.456C188.262 140.9 186.818 143.628 186.818 146.516V224.672C186.818 227.56 188.423 230.288 190.831 231.732L258.4 270.729C259.647 271.439 261.057 271.812 262.492 271.812C263.927 271.812 265.338 271.439 266.585 270.729L334.155 231.732C336.722 230.288 338.168 227.56 338.168 224.672V146.518C338.168 143.63 336.561 140.901 334.155 139.457L266.585 100.462Z" fill="url(#paint0_linear)"/>
<path d="M334.314 139.457L266.425 100.462C265.758 100.125 265.059 99.8561 264.338 99.6592L188.262 229.97C188.892 230.74 189.653 231.392 190.51 231.896L258.4 270.893C260.326 272.017 262.573 272.337 264.659 271.694L336.081 141.064C335.599 140.422 334.956 139.939 334.314 139.459V139.457Z" fill="url(#paint1_linear)"/>
<path fill-rule="evenodd" clip-rule="evenodd" d="M334.476 231.734C336.402 230.611 337.846 228.685 338.489 226.599L264.016 99.4981C262.09 99.1774 260.003 99.337 258.239 100.46L190.83 139.298L263.534 271.854C264.591 271.681 265.618 271.357 266.584 270.892L334.474 231.735L334.476 231.734Z" fill="url(#paint2_linear)"/>
<path fill-rule="evenodd" clip-rule="evenodd" d="M334.476 231.734L266.746 270.731C265.79 271.218 264.759 271.544 263.696 271.693L264.981 274.101L340.093 230.612V229.648L338.167 226.438C337.846 228.685 336.402 230.611 334.476 231.734V231.734Z" fill="url(#paint3_linear)"/>
<path fill-rule="evenodd" clip-rule="evenodd" d="M334.476 231.734L266.746 270.731C265.79 271.218 264.759 271.544 263.696 271.693L264.981 274.101L340.093 230.612V229.648L338.167 226.438C337.846 228.685 336.402 230.611 334.476 231.734V231.734Z" fill="url(#paint4_linear)"/>
</g>
</g>
<defs>
<linearGradient id="paint0_linear" x1="290.021" y1="129.532" x2="215.969" y2="245.9" gradientUnits="userSpaceOnUse">
<stop stop-color="#41873F"/>
<stop offset="0.3288" stop-color="#418B3D"/>
<stop offset="0.6352" stop-color="#419637"/>
<stop offset="0.9319" stop-color="#3FA92D"/>
<stop offset="1" stop-color="#3FAE2A"/>
</linearGradient>
<linearGradient id="paint1_linear" x1="252.234" y1="194.75" x2="437.709" y2="93.9705" gradientUnits="userSpaceOnUse">
<stop offset="0.1376" stop-color="#41873F"/>
<stop offset="0.4032" stop-color="#54A044"/>
<stop offset="0.7136" stop-color="#66B848"/>
<stop offset="0.9081" stop-color="#6CC04A"/>
</linearGradient>
<linearGradient id="paint2_linear" x1="184.349" y1="185.598" x2="340.702" y2="185.598" gradientUnits="userSpaceOnUse">
<stop offset="0.09192" stop-color="#6CC04A"/>
<stop offset="0.2864" stop-color="#66B848"/>
<stop offset="0.5968" stop-color="#54A044"/>
<stop offset="0.8624" stop-color="#41873F"/>
</linearGradient>
<linearGradient id="paint3_linear" x1="184.35" y1="250.4" x2="340.702" y2="250.4" gradientUnits="userSpaceOnUse">
<stop offset="0.09192" stop-color="#6CC04A"/>
<stop offset="0.2864" stop-color="#66B848"/>
<stop offset="0.5968" stop-color="#54A044"/>
<stop offset="0.8624" stop-color="#41873F"/>
</linearGradient>
<linearGradient id="paint4_linear" x1="363.48" y1="125.837" x2="323.878" y2="333.372" gradientUnits="userSpaceOnUse">
<stop stop-color="#41873F"/>
<stop offset="0.3288" stop-color="#418B3D"/>
<stop offset="0.6352" stop-color="#419637"/>
<stop offset="0.9319" stop-color="#3FA92D"/>
<stop offset="1" stop-color="#3FAE2A"/>
</linearGradient>
<clipPath id="clip0">
<rect width="711" height="436" fill="white"/>
</clipPath>
</defs>
</svg>
