<svg width="199" height="199" viewBox="0 0 199 199" fill="none" xmlns="http://www.w3.org/2000/svg">
<path d="M99.5 145.301C147.583 145.301 186.562 124.795 186.562 99.5001C186.562 74.2048 147.583 53.699 99.5 53.699C51.4167 53.699 12.4375 74.2048 12.4375 99.5001C12.4375 124.795 51.4167 145.301 99.5 145.301Z" fill="url(#paint0_radial)"/>
<path d="M99.5007 141.899C145.705 141.899 183.162 122.917 183.162 99.5C183.162 76.0835 145.705 57.1006 99.5007 57.1006C53.2961 57.1006 15.8398 76.0835 15.8398 99.5C15.8398 122.917 53.2961 141.899 99.5007 141.899Z" fill="#6280B6"/>
<path d="M116.446 113.181L120.594 91.8261C121.185 89.9985 121.282 88.0471 120.876 86.1698C120.47 84.2924 119.574 82.5559 118.281 81.1361C114.669 78.5719 110.248 77.4113 105.843 77.8712H98.6728L100.731 67.2994C100.769 67.1025 100.762 66.8998 100.713 66.7057C100.663 66.5116 100.571 66.3309 100.443 66.1765C100.315 66.0221 100.155 65.8977 99.9737 65.8123C99.7925 65.7269 99.5946 65.6826 99.3942 65.6825H89.4442C89.1282 65.6824 88.8221 65.7922 88.5782 65.993C88.3343 66.1938 88.1677 66.4731 88.1071 66.7832L83.6981 89.4568C83.3587 87.0325 82.329 84.7571 80.7317 82.9022C78.9533 81.1212 76.8079 79.7495 74.445 78.8828C72.0822 78.016 69.5586 77.6751 67.0505 77.8837H47.8843C47.5683 77.8836 47.2622 77.9933 47.0183 78.1942C46.7743 78.395 46.6078 78.6743 46.5472 78.9844L37.6295 124.879C37.592 125.076 37.5984 125.278 37.6482 125.472C37.6981 125.666 37.7901 125.847 37.9178 126.002C38.0455 126.156 38.2057 126.28 38.387 126.366C38.5683 126.451 38.7662 126.496 38.9666 126.496H48.9352C49.2512 126.496 49.5573 126.386 49.8012 126.185C50.0452 125.984 50.2117 125.705 50.2723 125.395L52.4302 114.294H59.8927C63.1876 114.382 66.4764 113.963 69.6437 113.051C72.3142 112.167 74.7564 110.704 76.7952 108.766C78.466 107.244 79.8923 105.474 81.024 103.517L79.2392 112.69C79.2017 112.887 79.2081 113.09 79.2579 113.284C79.3077 113.478 79.3998 113.658 79.5275 113.813C79.6552 113.967 79.8154 114.092 79.9967 114.177C80.178 114.262 80.3759 114.307 80.5762 114.307H90.5262C90.8422 114.307 91.1483 114.197 91.3922 113.996C91.6362 113.796 91.8027 113.516 91.8633 113.206L96.7574 88.014H103.561C106.459 88.014 107.292 88.5924 107.541 88.8411C107.789 89.0899 108.163 89.8672 107.696 92.3796L103.747 112.684C103.71 112.881 103.716 113.083 103.766 113.277C103.816 113.472 103.908 113.652 104.036 113.807C104.163 113.961 104.323 114.085 104.505 114.171C104.686 114.256 104.884 114.301 105.084 114.301H115.159C115.469 114.289 115.765 114.171 115.999 113.968C116.233 113.764 116.391 113.487 116.446 113.181V113.181ZM70.4583 95.5574C70.1542 98.1682 68.9149 100.581 66.9696 102.348C64.5261 103.868 61.6609 104.568 58.792 104.344H54.3642L57.5669 87.8586H63.2943C67.5044 87.8586 69.1959 88.7603 69.88 89.5127C70.4018 90.4208 70.7234 91.4299 70.8231 92.4725C70.9229 93.515 70.7985 94.5668 70.4583 95.5574V95.5574Z" fill="white"/>
<path d="M158.864 82.9082C157.085 81.1272 154.94 79.7555 152.577 78.8887C150.214 78.022 147.691 77.681 145.182 77.8896H125.96C125.644 77.8895 125.338 77.9993 125.094 78.2001C124.85 78.4009 124.684 78.6803 124.623 78.9903L115.706 124.885C115.668 125.082 115.674 125.284 115.724 125.478C115.774 125.672 115.866 125.853 115.994 126.008C116.122 126.162 116.282 126.286 116.463 126.372C116.644 126.457 116.842 126.501 117.043 126.502H127.042C127.358 126.502 127.664 126.392 127.908 126.191C128.152 125.99 128.319 125.711 128.379 125.401L130.537 114.3H138C141.295 114.388 144.584 113.969 147.751 113.057C150.421 112.173 152.864 110.71 154.902 108.772C158.394 105.625 160.747 101.412 161.594 96.7884C162.263 94.4232 162.364 91.9334 161.89 89.5216C161.416 87.1097 160.379 84.8438 158.864 82.9082V82.9082ZM148.497 95.5571C148.193 98.1679 146.954 100.58 145.008 102.348C142.559 103.87 139.687 104.567 136.812 104.338H132.397L135.599 87.8521H141.327C145.537 87.8521 147.228 88.7538 147.913 89.5063C148.436 90.4147 148.759 91.4247 148.86 92.4684C148.961 93.5121 148.837 94.5653 148.497 95.5571V95.5571Z" fill="white"/>
<path d="M63.2944 86.4902C64.6361 86.3213 65.9981 86.4201 67.3014 86.7809C68.6047 87.1417 69.8236 87.7573 70.8875 88.5922C71.574 89.6491 72.0118 90.848 72.168 92.0986C72.3242 93.3491 72.1947 94.6189 71.7892 95.8122C71.4337 98.7504 70.0133 101.456 67.7968 103.418C65.1235 105.139 61.9636 105.947 58.792 105.719H52.7101L56.4413 86.5089L63.2944 86.4902ZM38.9355 125.146H48.9353L51.3046 112.945H59.8679C63.0198 113.031 66.1662 112.63 69.196 111.757C71.6826 110.936 73.9554 109.572 75.85 107.765C79.1295 104.815 81.3384 100.86 82.131 96.5211C82.7585 94.3632 82.8688 92.0879 82.4528 89.8794C82.0368 87.671 81.1063 85.5917 79.7368 83.81C78.0853 82.1765 76.0974 80.923 73.9117 80.1368C71.726 79.3506 69.3951 79.0506 67.0816 79.2578H47.8843L38.9355 125.146Z" fill="#000004"/>
<path d="M89.4692 67.0505H99.4192L97.0125 79.2517H105.849C109.908 78.8269 113.986 79.8584 117.354 82.162C118.469 83.4293 119.231 84.9674 119.564 86.622C119.897 88.2767 119.789 89.9899 119.251 91.5897L115.103 112.945H105.035L108.984 92.6406C109.259 91.8657 109.357 91.0389 109.271 90.2211C109.185 89.4033 108.916 88.6151 108.486 87.9144C107.046 86.8828 105.267 86.4381 103.511 86.6706H95.5822L90.4704 112.964H80.5204L89.4692 67.0505Z" fill="#000004"/>
<path d="M141.334 86.4902C142.676 86.3213 144.038 86.4201 145.341 86.7809C146.644 87.1417 147.863 87.7573 148.927 88.5922C149.613 89.6491 150.051 90.848 150.207 92.0986C150.364 93.3491 150.234 94.6189 149.829 95.8122C149.473 98.7504 148.053 101.456 145.836 103.418C143.158 105.143 139.991 105.951 136.813 105.719H130.731L134.462 86.5089L141.334 86.4902ZM116.975 125.146H126.975L129.344 112.945H137.907C141.059 113.031 144.206 112.63 147.235 111.757C149.722 110.936 151.995 109.572 153.889 107.765C157.169 104.815 159.378 100.86 160.17 96.5211C160.798 94.3632 160.908 92.0879 160.492 89.8794C160.076 87.671 159.146 85.5917 157.776 83.81C156.125 82.1765 154.137 80.923 151.951 80.1368C149.765 79.3506 147.435 79.0506 145.121 79.2578H125.893L116.975 125.146Z" fill="#000004"/>
<defs>
<radialGradient id="paint0_radial" cx="0" cy="0" r="1" gradientUnits="userSpaceOnUse" gradientTransform="translate(64.7123 69.8055) scale(114.325)">
<stop stop-color="white"/>
<stop offset="0.5" stop-color="#4C6B96"/>
<stop offset="1" stop-color="#231F20"/>
</radialGradient>
</defs>
</svg>
