<svg width="298" height="257" viewBox="0 0 298 257" fill="none" xmlns="http://www.w3.org/2000/svg">
<g clip-path="url(#clip0)">
<path d="M286.324 197.357C270.421 205.676 188.038 239.669 170.499 248.845C152.96 258.022 143.217 257.934 129.361 251.287C115.506 244.64 27.8362 209.101 12.0434 201.526C4.15105 197.741 0 194.545 0 191.526V161.298C0 161.298 114.136 136.363 132.562 129.729C150.987 123.095 157.38 122.856 173.06 128.619C188.742 134.385 282.503 151.362 298 157.058L297.993 186.858C297.995 189.846 294.419 193.124 286.324 197.357" fill="#912626"/>
<path d="M286.318 167.306C270.416 175.621 188.035 209.615 170.496 218.79C152.959 227.968 143.216 227.879 129.361 221.232C115.505 214.589 27.8383 179.045 12.0466 171.474C-3.74505 163.898 -4.07564 158.685 11.4367 152.589C26.949 146.491 114.135 112.164 132.563 105.53C150.988 98.8984 157.38 98.6566 173.06 104.423C188.741 110.187 270.63 142.897 286.125 148.592C301.626 154.294 302.221 158.989 286.318 167.306" fill="#C6302B"/>
<path d="M286.324 148.445C270.421 156.764 188.038 190.756 170.499 199.936C152.96 209.11 143.217 209.021 129.361 202.374C115.505 195.73 27.8362 160.188 12.0434 152.613C4.15105 148.828 0 145.636 0 142.617V112.385C0 112.385 114.136 87.4516 132.562 80.8175C150.987 74.1834 157.38 73.9427 173.06 79.7077C188.743 85.4727 282.504 102.445 298 108.142L297.993 137.946C297.995 140.933 294.419 144.211 286.324 148.445Z" fill="#912626"/>
<path d="M286.318 118.396C270.416 126.714 188.035 160.705 170.496 169.884C152.959 179.059 143.216 178.969 129.361 172.322C115.505 165.68 27.8383 130.136 12.0466 122.564C-3.74505 114.991 -4.07564 109.776 11.4367 103.678C26.949 97.5839 114.136 63.2545 132.563 56.6216C150.988 49.9887 157.38 49.748 173.06 55.513C188.741 61.2768 270.63 93.9847 286.125 99.6819C301.626 105.383 302.221 110.079 286.318 118.396" fill="#C6302B"/>
<path d="M286.324 97.7221C270.421 106.04 188.038 140.034 170.499 149.213C152.96 158.388 143.217 158.298 129.361 151.651C115.505 145.008 27.8362 109.465 12.0434 101.892C4.15105 98.1041 0 94.9114 0 91.8952V61.6626C0 61.6626 114.136 36.7301 132.562 30.0972C150.987 23.4619 157.38 23.2236 173.06 28.9874C188.743 34.7524 282.504 51.7249 298 57.4221L297.993 87.2248C297.995 90.2095 294.419 93.4874 286.324 97.7221Z" fill="#912626"/>
<path d="M286.319 67.6741C270.417 75.9916 188.036 109.986 170.497 119.161C152.959 128.335 143.216 128.246 129.361 121.602C115.507 114.955 27.8387 79.4143 12.0482 71.841C-3.74466 64.2689 -4.07408 59.0529 11.437 52.9562C26.9493 46.8606 114.136 12.5359 132.564 5.90067C150.988 -0.733436 157.38 -0.971745 173.06 4.79323C188.741 10.5582 270.631 43.2661 286.126 48.9633C301.626 54.6594 302.221 59.3567 286.319 67.6741" fill="#C6302B"/>
<path d="M185.416 38.2663L159.795 40.9356L154.059 54.7856L144.796 39.3306L115.211 36.6624L137.286 28.6732L130.663 16.4097L151.331 24.5215L170.815 18.1199L165.548 30.8005L185.416 38.2663" fill="white"/>
<path d="M152.529 105.457L104.713 85.555L173.23 75.0005L152.529 105.457" fill="white"/>
<path d="M86.2362 45.9648C106.462 45.9648 122.858 52.3431 122.858 60.2097C122.858 68.0785 106.462 74.4556 86.2362 74.4556C66.0106 74.4556 49.6147 68.0774 49.6147 60.2097C49.6147 52.3431 66.0106 45.9648 86.2362 45.9648Z" fill="white"/>
<path d="M215.695 42.0519L256.247 58.1331L215.73 74.1991L215.695 42.0508" fill="#621B1C"/>
<path d="M170.832 59.8597L215.695 42.0508L215.73 74.198L211.331 75.9245L170.832 59.8597Z" fill="#9A2928"/>
</g>
<defs>
<clipPath id="clip0">
<rect width="298" height="257" fill="white"/>
</clipPath>
</defs>
</svg>
