<svg width="386" height="320" viewBox="0 0 386 320" fill="none" xmlns="http://www.w3.org/2000/svg">
<path d="M334.292 111.572C334.85 107.929 335.228 104.231 335.228 100.438C335.228 60.0714 302.529 27.3466 262.207 27.3466C248.511 27.3472 235.095 31.2289 223.511 38.5428C205.942 15.3833 178.174 0.416504 146.904 0.416504C93.8363 0.416504 50.8181 43.4739 50.8181 96.59C50.8181 101.656 51.2187 106.63 51.9698 111.487C22.3448 120.806 0.85498 148.503 0.85498 181.228C0.85498 221.598 33.55 254.315 73.8602 254.315H312.151C352.5 254.315 385.195 221.598 385.195 181.228C385.191 148.584 363.813 120.956 334.292 111.572V111.572Z" fill="#FF9900"/>
<path d="M81.3096 204.337H303.888V320H81.3096V204.337Z" fill="#66B5E4"/>
<path d="M131.099 266.024H254.361L200.434 320H81.4328L81.3096 316.268L131.099 266.024Z" fill="#53A4DB"/>
<path d="M261.903 161.889L303.888 204.337H81.3096L123.245 161.959L261.903 161.889V161.889Z" fill="#6BC9F2"/>
<path d="M111.717 100.241H273.324L273.497 131.03V192.771H111.717V100.241Z" fill="#EBECED"/>
<path d="M252.308 273.735C258.69 273.735 263.863 268.557 263.863 262.169C263.863 255.781 258.69 250.603 252.308 250.603C245.926 250.603 240.752 255.781 240.752 262.169C240.752 268.557 245.926 273.735 252.308 273.735Z" fill="#2880BA"/>
<path d="M132.899 273.735C139.281 273.735 144.454 268.557 144.454 262.169C144.454 255.781 139.281 250.603 132.899 250.603C126.516 250.603 121.343 255.781 121.343 262.169C121.343 268.557 126.516 273.735 132.899 273.735Z" fill="#2880BA"/>
<path d="M150.236 127.229V134.94H234.978V127.229H150.236ZM150.236 150.362H234.978V142.651H150.236V150.362ZM150.236 165.783H234.978V158.072H150.236V165.783Z" fill="#BDC2C7"/>
<path d="M111.717 192.771V185.06H273.497V192.771H111.717Z" fill="#DADADB"/>
<path d="M138.68 254.458H246.534C248.577 254.458 250.536 255.27 251.981 256.716C253.426 258.162 254.237 260.124 254.237 262.169C254.237 264.214 253.426 266.175 251.981 267.621C250.536 269.067 248.577 269.879 246.534 269.879H138.68C136.637 269.879 134.677 269.067 133.233 267.621C131.788 266.175 130.976 264.214 130.976 262.169C130.976 260.124 131.788 258.162 133.233 256.716C134.677 255.27 136.637 254.458 138.68 254.458Z" fill="#EBECED"/>
<path d="M254.234 262.169H130.972C130.972 264.214 131.784 266.175 133.229 267.621C134.674 269.067 136.633 269.88 138.676 269.88H246.53C248.573 269.88 250.532 269.067 251.977 267.621C253.422 266.175 254.234 264.214 254.234 262.169Z" fill="#DADADB"/>
</svg>
