<svg width="1025" height="1024" viewBox="0 0 1025 1024" fill="none" xmlns="http://www.w3.org/2000/svg">
<g clip-path="url(#clip0)">
<path d="M1024.99 0H0.98999V1024H1024.99V0Z" fill="#FF7676"/>
<path d="M512.99 1355C855.953 1355 1133.98 1076.97 1133.98 734.01C1133.98 391.047 855.953 113.02 512.99 113.02C170.027 113.02 -108 391.047 -108 734.01C-108 1076.97 170.027 1355 512.99 1355Z" fill="url(#paint0_linear)"/>
<path d="M683.62 556.04C649.49 524.76 601.41 506.01 539.36 499.81C483.52 494.13 444.74 482.24 423.02 464.13C401.31 446.04 390.45 423.54 390.45 396.66C390.45 367.71 402.59 345.6 426.91 330.35C451.2 315.11 483 307.47 522.3 307.47C554.35 307.47 580.85 313.55 601.8 325.69C622.74 337.85 640.19 355.55 654.15 378.82C657.77 385.55 662.94 390.84 669.67 394.72C676.38 398.6 683.63 400.54 691.39 400.54C699.15 400.54 705.85 398.73 711.55 395.11C721.89 387.88 727.06 378.57 727.06 367.19C727.06 358.4 723.96 349.1 717.75 339.27C696.54 305.67 670.7 279.82 640.2 261.71C628.69 254.88 615.85 249.76 602.35 245.51C603.1 250.19 603.79 254.89 603.79 259.77V266.01C609.59 269.8 613.66 276.04 613.66 283.48C613.66 295.21 604.16 304.71 592.43 304.71C580.71 304.71 571.2 295.21 571.2 283.48C571.2 275.46 575.83 268.73 582.39 265.11V259.76C582.39 252.7 581.02 246.01 579.05 239.58C563.04 236.48 546.14 234.55 527.74 234.55C498.16 234.55 470.76 237.98 445.39 244.63C444.29 249.52 443.61 254.55 443.61 259.76V265.28C450.04 268.93 454.56 275.57 454.56 283.48C454.56 295.21 445.05 304.71 433.33 304.71C421.61 304.71 412.1 295.21 412.1 283.48C412.1 275.93 416.27 269.61 422.21 265.84V259.76C422.21 256.98 422.78 254.37 423.03 251.65C421.12 252.33 419.1 252.83 417.22 253.55C384.38 266.22 358.53 284.57 339.66 308.61C320.78 332.65 311.35 361.23 311.35 394.31C311.35 441.36 329.7 480.53 366.42 511.81C403.13 543.1 453.54 561.84 517.65 568.04C564.18 572.69 598.82 585.49 621.58 606.43C644.33 627.37 655.71 652.57 655.71 682.05C655.71 713.08 642.25 737.5 615.38 755.34C588.49 773.18 555.66 782.1 516.88 782.1C483.78 782.1 453.54 775.12 426.14 761.16C398.73 747.2 380.38 730.14 371.07 709.97C367.45 701.71 361.89 695.11 354.39 690.19C346.89 685.28 339 682.83 330.74 682.83C327.11 682.83 324.53 683.1 322.98 683.61C313.15 685.68 305.39 689.69 299.71 695.63C294.02 701.58 291.18 708.43 291.18 716.18C291.18 720.32 292.46 725.48 295.06 731.69C310.57 768.41 338.88 798.14 379.98 820.88C421.09 843.64 466.71 855.01 516.88 855.01C555.14 855.01 590.94 848.42 624.29 835.23C657.64 822.05 684.4 802.14 704.56 775.51C724.72 748.89 734.81 716.95 734.81 679.72C734.8 628.55 717.74 587.32 683.62 556.04Z" fill="black"/>
<path d="M602.33 245.51C595.43 202.24 558.16 168.98 512.99 168.98C465.69 168.98 427.19 205.45 423.01 251.66C422.76 254.37 422.19 256.99 422.19 259.77V265.85V282.38C422.19 288.29 426.98 293.08 432.89 293.08C438.8 293.08 443.59 288.29 443.59 282.38V265.28V259.76C443.59 254.55 444.27 249.51 445.37 244.63C452.31 213.64 479.94 190.37 512.99 190.37C544.19 190.37 570.32 211.2 579.03 239.58C581 246.01 582.37 252.69 582.37 259.76V265.11V282.37C582.37 288.28 587.16 293.07 593.07 293.07C598.98 293.07 603.77 288.28 603.77 282.37V266V259.76C603.77 254.88 603.08 250.18 602.33 245.51Z" fill="#F02850"/>
</g>
<defs>
<linearGradient id="paint0_linear" x1="512.99" y1="242.096" x2="512.99" y2="1256.47" gradientUnits="userSpaceOnUse">
<stop stop-color="white"/>
<stop offset="1" stop-color="white" stop-opacity="0"/>
</linearGradient>
<clipPath id="clip0">
<rect width="1024" height="1024" fill="white" transform="translate(0.98999)"/>
</clipPath>
</defs>
</svg>
