<svg width="1024" height="1024" viewBox="0 0 1024 1024" fill="none" xmlns="http://www.w3.org/2000/svg">
<path d="M0 233C0 104.318 104.318 0 233 0H791C919.682 0 1024 104.318 1024 233V791C1024 919.682 919.682 1024 791 1024H233C104.318 1024 0 919.682 0 791V233Z" fill="url(#paint0_radial)"/>
<g filter="url(#filter0_f)">
<rect x="178" y="367" width="669" height="321" rx="16" fill="#092B83"/>
</g>
<path d="M126 435C126 368.726 179.726 315 246 315H779C845.274 315 899 368.726 899 435V590C899 656.274 845.274 710 779 710H246C179.726 710 126 656.274 126 590V435Z" fill="#F2F6FF"/>
<path d="M126 435C126 368.726 179.726 315 246 315H392C458.274 315 512 368.726 512 435V590C512 656.274 458.274 710 392 710H246C179.726 710 126 656.274 126 590V435Z" fill="white"/>
<path d="M190.616 468.803C190.616 458.404 195.928 453.205 206.551 453.205H237.316C248.087 453.205 253.473 458.404 253.473 468.803V490.773C253.473 501.611 248.087 507.03 237.316 507.03H232.889C230.971 508.641 230.012 511.205 230.012 514.72V517.795C230.012 525.997 234.07 530.098 242.185 530.098H257.235C263.58 530.098 266.753 531.856 266.753 535.371C266.753 538.74 263.506 540.424 257.014 540.424H187.074C181.025 540.424 178 538.667 178 535.152C178 531.783 181.025 530.098 187.074 530.098H202.567C210.535 530.098 214.519 525.997 214.519 517.795V514.72C214.519 511.205 213.486 508.641 211.421 507.03H206.551C195.928 507.03 190.616 501.684 190.616 490.992V468.803ZM206.551 475.614V484.621C206.551 492.823 210.683 496.924 218.946 496.924H225.364C233.48 496.924 237.537 492.823 237.537 484.621V475.614C237.537 467.119 233.48 462.871 225.364 462.871H218.946C210.683 462.871 206.551 467.119 206.551 475.614Z" fill="#424242"/>
<path d="M302.36 469.023C302.36 458.331 307.82 452.985 318.739 452.985H355.922C362.119 452.985 365.217 454.596 365.217 457.818C365.217 461.04 362.045 462.652 355.7 462.652H332.682C323.534 462.652 318.96 468.071 318.96 478.909V482.644C318.96 492.164 323.534 496.924 332.682 496.924H355.7C362.045 496.924 365.217 498.535 365.217 501.758C365.217 505.126 362.119 506.811 355.922 506.811H318.739C307.82 506.811 302.36 501.318 302.36 490.333V469.023ZM289.745 534.932C289.745 531.71 292.991 530.098 299.483 530.098H369.201C375.399 530.098 378.497 531.783 378.497 535.152C378.497 538.667 375.399 540.424 369.201 540.424H353.487C345.962 540.424 342.199 544.818 342.199 553.606V558.879C342.199 567.52 339.543 571.841 334.232 571.841C328.477 571.841 325.6 567.52 325.6 558.879V553.606C325.6 544.818 322.059 540.424 314.976 540.424H299.704C293.065 540.424 289.745 538.593 289.745 534.932Z" fill="#424242"/>
<path d="M446.419 442C450.403 442 454.313 442.879 458.149 444.636C461.986 446.247 465.306 448.518 468.109 451.447C471.06 454.23 473.421 457.525 475.192 461.333C477.11 465.141 478.069 469.169 478.069 473.417C478.069 477.811 477.11 481.912 475.192 485.72C473.421 489.528 471.06 492.823 468.109 495.606C465.306 498.242 461.986 500.439 458.149 502.197C454.313 503.808 450.403 504.614 446.419 504.614C441.992 504.614 437.861 503.808 434.025 502.197C430.336 500.439 427.016 498.169 424.065 495.386C421.261 492.604 419.048 489.308 417.425 485.5C415.802 481.692 414.99 477.664 414.99 473.417C414.99 469.462 415.802 465.581 417.425 461.773C419.196 457.965 421.483 454.596 424.286 451.667C427.237 448.737 430.557 446.394 434.246 444.636C438.082 442.879 442.14 442 446.419 442ZM464.346 473.417C464.346 471.073 463.83 468.876 462.797 466.826C461.764 464.775 460.436 462.944 458.813 461.333C457.19 459.722 455.272 458.477 453.059 457.598C450.993 456.573 448.78 456.061 446.419 456.061C443.468 456.061 440.886 456.646 438.672 457.818C436.459 458.843 434.615 460.235 433.139 461.992C431.811 463.604 430.705 465.434 429.819 467.485C429.082 469.389 428.713 471.366 428.713 473.417C428.713 478.25 430.336 482.424 433.582 485.939C436.976 489.308 441.255 490.992 446.419 490.992C448.337 490.992 450.329 490.626 452.395 489.894C454.608 489.015 456.6 487.843 458.371 486.379C460.141 484.768 461.543 482.937 462.576 480.886C463.756 478.689 464.346 476.199 464.346 473.417ZM519.9 473.856V548.333C519.9 557.121 517.17 561.515 511.711 561.515C505.809 561.515 502.858 557.121 502.858 548.333V473.856C502.858 465.215 505.735 460.894 511.489 460.894C517.096 460.894 519.9 465.215 519.9 473.856ZM418.31 526.144H480.061C486.701 526.144 490.021 527.902 490.021 531.417C490.021 534.639 486.701 536.25 480.061 536.25H418.31C411.966 536.25 408.793 534.639 408.793 531.417C408.793 527.902 411.966 526.144 418.31 526.144Z" fill="#424242"/>
<path d="M631.408 488.136C631.408 490.333 631.703 492.311 632.293 494.068C633.031 495.826 634.285 497.51 636.055 499.121L645.794 509.227C647.417 511.131 648.671 512.742 649.556 514.061C650.589 515.379 651.032 516.624 650.884 517.795C650.884 519.114 650.368 520.359 649.335 521.53C648.302 522.702 647.196 523.288 646.015 523.288C644.392 523.288 642.695 522.702 640.925 521.53C639.154 520.359 637.162 518.747 634.949 516.697L629.637 511.644C627.129 509.447 624.694 508.348 622.333 508.348C620.858 508.202 619.456 508.495 618.128 509.227C616.947 509.813 615.767 510.692 614.587 511.864L608.389 517.136C604.11 521.677 600.495 523.947 597.544 523.947C596.364 523.947 595.11 523.361 593.782 522.189C592.601 520.871 592.011 519.553 592.011 518.235C591.864 517.063 592.306 515.818 593.339 514.5C594.372 513.035 595.7 511.351 597.323 509.447L608.168 498.462C611.414 495.24 613.037 491.652 613.037 487.697V475.394C613.037 466.606 616.062 462.212 622.112 462.212C628.309 462.212 631.408 466.606 631.408 475.394V488.136ZM674.124 505.492C674.124 498.169 670.952 494.508 664.607 494.508H660.623C653.393 494.508 649.778 492.604 649.778 488.795C649.778 484.987 653.172 483.083 659.959 483.083H663.943C665.861 483.083 668 482.278 670.361 480.667C672.722 478.909 673.903 476.932 673.903 474.735V459.356C673.903 452.472 676.19 449.03 680.764 449.03C685.78 449.03 688.289 453.424 688.289 462.212V519.773C688.289 528.707 685.854 533.174 680.985 533.174C676.411 533.174 674.124 528.561 674.124 519.333V505.492ZM705.11 462.212C705.11 453.424 707.692 449.03 712.856 449.03C718.168 449.03 720.824 453.424 720.824 462.212V519.773C720.824 528.707 718.094 533.174 712.635 533.174C707.618 533.174 705.11 528.707 705.11 519.773V462.212ZM673.239 547.455C673.239 544.232 676.706 542.621 683.641 542.621H716.84C726.579 542.621 731.448 547.455 731.448 557.121V567.667C731.448 578.359 726.357 583.705 716.176 583.705H701.126C693.306 583.705 689.396 587.293 689.396 594.47V596.447C689.396 603.184 693.306 606.553 701.126 606.553H721.045C727.98 606.553 731.448 608.237 731.448 611.606C731.448 614.535 728.054 616 721.267 616H687.846C677.813 616 672.796 610.727 672.796 600.182V590.735C672.796 579.896 677.813 574.477 687.846 574.477H703.339C711.159 574.477 715.07 571.182 715.07 564.591V562.614C715.07 555.583 711.159 552.068 703.339 552.068H684.084C676.854 552.068 673.239 550.53 673.239 547.455Z" fill="#424242"/>
<path d="M748.288 458.917C748.288 455.694 751.165 454.083 756.92 454.083H787.684C797.423 454.083 802.292 458.404 802.292 467.045V489.015C802.292 493.409 801.038 496.631 798.529 498.682C796.021 500.732 793.217 501.758 790.119 501.758H777.06C768.945 501.758 764.887 506.078 764.887 514.72V518.015C764.887 526.51 768.871 530.758 776.839 530.758H793.881C799.488 530.758 802.292 532.369 802.292 535.591C802.292 538.813 799.488 540.424 793.881 540.424H763.338C753.157 540.424 748.066 535.371 748.066 525.265V504.833C748.066 496.338 753.157 492.091 763.338 492.091H773.962C781.635 492.091 785.471 487.99 785.471 479.788V476.053C785.471 467.705 781.635 463.53 773.962 463.53H757.583C751.386 463.53 748.288 461.992 748.288 458.917ZM830.622 526.364C830.622 519.48 827.228 516.038 820.441 516.038H813.579C810.481 516.038 808.415 515.525 807.382 514.5C806.349 513.328 805.833 511.79 805.833 509.886C805.833 509.008 806.202 507.763 806.94 506.152C807.825 504.54 810.038 503.735 813.579 503.735H820.441C827.228 503.735 830.622 500.22 830.622 493.189V471.879C830.622 468.803 831.138 466.093 832.171 463.75C833.351 461.407 835.639 460.235 839.032 460.235C841.688 460.235 843.68 461.333 845.008 463.53C846.336 465.727 847 468.364 847 471.439V549.432C847 553.533 846.115 556.462 844.344 558.22C842.721 559.831 840.877 560.636 838.811 560.636C833.351 560.636 830.622 556.828 830.622 549.212V526.364Z" fill="#424242"/>
<defs>
<filter id="filter0_f" x="88" y="277" width="849" height="501" filterUnits="userSpaceOnUse" color-interpolation-filters="sRGB">
<feFlood flood-opacity="0" result="BackgroundImageFix"/>
<feBlend mode="normal" in="SourceGraphic" in2="BackgroundImageFix" result="shape"/>
<feGaussianBlur stdDeviation="45" result="effect1_foregroundBlur"/>
</filter>
<radialGradient id="paint0_radial" cx="0" cy="0" r="1" gradientUnits="userSpaceOnUse" gradientTransform="translate(512 512) rotate(90) scale(512)">
<stop stop-color="#6393FF"/>
<stop offset="0.854167" stop-color="#6E9DFD"/>
</radialGradient>
</defs>
</svg>
