<svg width="190" height="190" viewBox="0 0 190 190" fill="none" xmlns="http://www.w3.org/2000/svg">
<path d="M165.757 35.625H107.724L95.8491 59.375H29.6875V160.312H178.125V35.625H165.757ZM166.25 59.375H119.878L126.101 47.5H166.25V59.375Z" fill="#2A4B59"/>
<path fill-rule="evenodd" clip-rule="evenodd" d="M95.1057 87.3704C93.9223 87.358 92.7425 87.5017 91.5967 87.7979V87.9701H91.7629C92.5821 89.2095 93.4974 90.3828 94.5001 91.4791C95.1889 92.8507 95.7885 94.2104 96.4714 95.5819L96.6376 95.4097C97.2712 94.9041 97.7668 94.2465 98.0782 93.4981C98.3896 92.7497 98.5068 91.9347 98.4189 91.1288C98.0445 90.5541 97.7016 89.9594 97.3917 89.3476C96.8811 88.4926 95.7648 88.0651 95.0761 87.3822" fill="white"/>
<path fill-rule="evenodd" clip-rule="evenodd" d="M180.072 162.011C174.424 161.606 168.755 162.416 163.447 164.386C162.164 164.896 160.11 164.896 159.938 166.523C160.627 167.206 160.71 168.304 161.315 169.266C162.487 171.248 163.991 173.014 165.763 174.485C167.544 175.857 169.355 177.217 171.243 178.416C174.58 180.476 178.368 181.67 181.592 183.724C183.48 184.912 185.356 186.461 187.25 187.75C188.189 188.432 188.782 189.531 189.982 189.97V189.709C189.627 188.758 189.19 187.84 188.675 186.966C187.82 186.117 186.965 185.339 186.104 184.49C183.593 181.173 180.59 178.26 177.198 175.851C174.455 173.963 168.464 171.398 167.354 168.239L167.182 168.067C169.197 167.783 171.184 167.322 173.119 166.689C176.023 165.923 178.677 166.096 181.675 165.33C183.047 164.985 185.529 164.142 185.529 164.142V162.806C183.997 161.286 182.904 159.244 181.295 157.813C176.915 153.99 172.246 150.51 167.33 147.404C164.7 145.712 161.315 144.614 158.525 143.171C157.515 142.66 155.823 142.411 155.229 141.562C153.837 139.518 152.672 137.328 151.756 135.031C149.253 130.214 146.938 125.302 144.815 120.306C143.567 117.008 142.125 113.786 140.499 110.657C132.65 97.3328 121.327 86.392 107.741 79.0044C104.313 77.3427 100.667 76.1733 96.9114 75.5309C94.7917 75.4419 92.6779 75.2756 90.5642 75.1925C89.1969 74.2967 87.8953 73.3046 86.6692 72.2237C81.842 69.1778 69.4089 62.5753 65.8523 71.2916C63.5664 76.7956 69.2367 82.2106 71.1961 85.0072C72.8346 86.9787 74.2782 89.1044 75.5067 91.3544C76.1004 92.7912 76.2667 94.3231 76.8664 95.8431C78.1039 99.7102 79.5731 103.499 81.2661 107.19C82.1738 109.015 83.2198 110.767 84.3951 112.432C85.0779 113.371 86.2595 113.786 86.5148 115.318C85.5778 117.335 84.9225 119.47 84.5673 121.665C83.0885 126.334 82.5444 131.248 82.9662 136.127C83.388 141.006 84.7673 145.754 87.0254 150.1C88.3792 152.214 91.5973 156.875 95.9317 155.093C99.7376 153.573 98.9004 148.746 99.9929 144.519C100.248 143.497 100.076 142.827 100.587 142.144V142.975C100.587 142.975 102.748 147.725 103.817 150.153C106.722 154.573 110.333 158.486 114.504 161.737C116.167 163.174 117.508 164.944 118.441 166.933V168.465H120.353C120.312 167.775 120.121 167.103 119.794 166.495C119.467 165.887 119.011 165.358 118.459 164.944C116.894 163.331 115.46 161.596 114.172 159.754C110.669 154.769 107.581 149.504 104.939 144.014C103.615 141.324 102.463 138.391 101.376 135.702C100.884 134.668 100.884 133.107 100.058 132.59C98.5296 134.397 97.2036 136.367 96.1039 138.462C94.7672 142.697 93.9907 147.089 93.7942 151.525C93.4676 151.614 93.6279 151.525 93.4676 151.697C90.8314 151.008 89.9051 148.135 88.9314 145.76C86.368 138.31 86.1093 130.261 88.1892 122.663C88.7829 120.882 91.247 115.14 90.2495 113.412C89.7507 111.762 88.106 110.817 87.1976 109.517C86.0438 107.765 85.0502 105.913 84.2289 103.983C82.2517 99.1444 81.2601 93.7769 79.1167 88.9378C77.9326 86.6054 76.5542 84.3769 74.996 82.2759C73.2742 80.176 71.7553 77.9176 70.4598 75.5309C70.1453 74.9983 69.9525 74.4027 69.895 73.7869C69.8375 73.171 69.9168 72.5501 70.1273 71.9684C70.1739 71.6761 70.3154 71.4072 70.53 71.2033C70.7447 70.9994 71.0204 70.8718 71.3148 70.8403C72.3835 69.8903 75.4354 71.0956 76.5042 71.6181C79.3772 72.7481 82.1138 74.198 84.6623 75.9406C85.8498 76.8075 88.5336 79.0044 88.5336 79.0044H89.3351C92.0723 79.5981 95.1598 79.1706 97.7248 79.9425C102.063 81.3858 106.202 83.3687 110.045 85.8444C121.386 93.0638 130.607 103.165 136.764 115.116C137.791 117.082 138.224 118.881 139.139 120.929C140.92 125.133 143.164 129.414 144.958 133.517C146.535 137.562 148.575 141.411 151.038 144.988C152.32 146.769 157.456 147.725 159.766 148.669C161.784 149.359 163.766 150.152 165.703 151.044C168.613 152.825 171.516 154.897 174.259 156.869C175.625 157.896 179.906 160.033 180.161 161.749" fill="#F3FDFF"/>
</svg>
