<svg width="439" height="439" viewBox="0 0 439 439" fill="none" xmlns="http://www.w3.org/2000/svg">
<path d="M329.25 288.094V123.469H301.812V315.531H411.562V288.094H329.25Z" fill="#000"/>
<path d="M246.938 123.469L226.085 192.062L219.5 219.226L213.189 192.062L192.062 123.469H164.625V315.531H192.062V205.781L189.868 178.344L197.824 205.781L219.5 269.299L241.176 205.781L249.132 178.344L246.938 205.781V315.531H274.375V123.469H246.938V123.469Z" fill="#000"/>
<path d="M137.188 123.469H109.75L82.3125 205.781L54.875 123.469H27.4375L65.1641 219.5L27.4375 315.531H54.875L82.3125 233.219L109.75 315.531H137.188L99.4609 219.5L137.188 123.469Z" fill="#000"/>
</svg>
